<svg width="24" height="24" viewBox="0 0 24 24" fill="none" xmlns="http://www.w3.org/2000/svg">
<path d="M12.5 8C12.5 7.72386 12.2761 7.5 12 7.5C11.7239 7.5 11.5 7.72386 11.5 8H12.5ZM11.5 16C11.5 16.2761 11.7239 16.5 12 16.5C12.2761 16.5 12.5 16.2761 12.5 16H11.5ZM16 12.5C16.2761 12.5 16.5 12.2761 16.5 12C16.5 11.7239 16.2761 11.5 16 11.5V12.5ZM8 11.5C7.72386 11.5 7.5 11.7239 7.5 12C7.5 12.2761 7.72386 12.5 8 12.5V11.5ZM11.5 8V16H12.5V8H11.5ZM16 11.5H8V12.5H16V11.5ZM18 1.5H6V2.5H18V1.5ZM1.5 6V18H2.5V6H1.5ZM6 22.5H18V21.5H6V22.5ZM22.5 18V6H21.5V18H22.5ZM18 22.5C20.4853 22.5 22.5 20.4853 22.5 18H21.5C21.5 19.933 19.933 21.5 18 21.5V22.5ZM1.5 18C1.5 20.4853 3.51472 22.5 6 22.5V21.5C4.067 21.5 2.5 19.933 2.5 18H1.5ZM6 1.5C3.51472 1.5 1.5 3.51472 1.5 6H2.5C2.5 4.067 4.067 2.5 6 2.5V1.5ZM18 2.5C19.933 2.5 21.5 4.067 21.5 6H22.5C22.5 3.51472 20.4853 1.5 18 1.5V2.5Z" fill="#292929"/>
</svg>
