<svg width="24" height="24" viewBox="0 0 24 24" fill="none" xmlns="http://www.w3.org/2000/svg">
<path d="M18 5H17.5H18ZM18 19H18.5H18ZM22 19H22.5H22ZM22 5H21.5H22ZM2 13H2.5H2ZM2 19H1.5H2ZM6 19H5.5H6ZM6 13H6.5H6ZM10 9H10.5H10ZM10 19H9.5H10ZM14 19H14.5H14ZM14 9H13.5H14ZM21.5 5V19H22.5V5H21.5ZM18.5 19V5H17.5V19H18.5ZM18.5 5C18.5 4.17157 19.1716 3.5 20 3.5V2.5C18.6193 2.5 17.5 3.61929 17.5 5H18.5ZM20 20.5C19.1716 20.5 18.5 19.8284 18.5 19H17.5C17.5 20.3807 18.6193 21.5 20 21.5V20.5ZM21.5 19C21.5 19.8284 20.8284 20.5 20 20.5V21.5C21.3807 21.5 22.5 20.3807 22.5 19H21.5ZM22.5 5C22.5 3.61929 21.3807 2.5 20 2.5V3.5C20.8284 3.5 21.5 4.17157 21.5 5H22.5ZM5.5 13L5.5 19H6.5V13H5.5ZM2.5 19L2.5 13H1.5L1.5 19H2.5ZM2.5 13C2.5 12.1716 3.17157 11.5 4 11.5V10.5C2.61929 10.5 1.5 11.6193 1.5 13H2.5ZM4 20.5C3.17157 20.5 2.5 19.8284 2.5 19H1.5C1.5 20.3807 2.61929 21.5 4 21.5V20.5ZM5.5 19C5.5 19.8284 4.82843 20.5 4 20.5V21.5C5.38071 21.5 6.5 20.3807 6.5 19H5.5ZM6.5 13C6.5 11.6193 5.38071 10.5 4 10.5V11.5C4.82843 11.5 5.5 12.1716 5.5 13H6.5ZM13.5 9V19H14.5V9H13.5ZM10.5 19L10.5 9H9.5L9.5 19H10.5ZM10.5 9C10.5 8.17157 11.1716 7.5 12 7.5V6.5C10.6193 6.5 9.5 7.61929 9.5 9H10.5ZM12 20.5C11.1716 20.5 10.5 19.8284 10.5 19H9.5C9.5 20.3807 10.6193 21.5 12 21.5V20.5ZM13.5 19C13.5 19.8284 12.8284 20.5 12 20.5V21.5C13.3807 21.5 14.5 20.3807 14.5 19H13.5ZM14.5 9C14.5 7.61929 13.3807 6.5 12 6.5V7.5C12.8284 7.5 13.5 8.17157 13.5 9H14.5Z" fill="#292929"/>
</svg>
