<svg width="24" height="24" viewBox="0 0 24 24" fill="none" xmlns="http://www.w3.org/2000/svg">
<path d="M7.44721 16.2764L7.67082 16.7236H7.67082L7.44721 16.2764ZM10.2111 13.1056L10.4348 12.6584L10.2111 13.1056ZM10.2111 14.8944L9.98754 14.4472H9.98754L10.2111 14.8944ZM7.44721 11.7236L7.22361 12.1708L7.44721 11.7236ZM2 6.5C1.72386 6.5 1.5 6.72386 1.5 7C1.5 7.27614 1.72386 7.5 2 7.5V6.5ZM22 7.5C22.2761 7.5 22.5 7.27614 22.5 7C22.5 6.72386 22.2761 6.5 22 6.5V7.5ZM14 11.5C13.7239 11.5 13.5 11.7239 13.5 12C13.5 12.2761 13.7239 12.5 14 12.5V11.5ZM18 12.5C18.2761 12.5 18.5 12.2761 18.5 12C18.5 11.7239 18.2761 11.5 18 11.5V12.5ZM14 15.5C13.7239 15.5 13.5 15.7239 13.5 16C13.5 16.2761 13.7239 16.5 14 16.5V15.5ZM18 16.5C18.2761 16.5 18.5 16.2761 18.5 16C18.5 15.7239 18.2761 15.5 18 15.5V16.5ZM7.22361 12.1708L9.98754 13.5528L10.4348 12.6584L7.67082 11.2764L7.22361 12.1708ZM9.98754 14.4472L7.22361 15.8292L7.67082 16.7236L10.4348 15.3416L9.98754 14.4472ZM6.5 15.382V12.618H5.5V15.382H6.5ZM7.22361 15.8292C6.89116 15.9954 6.5 15.7537 6.5 15.382H5.5C5.5 16.497 6.67347 17.2223 7.67082 16.7236L7.22361 15.8292ZM9.98754 13.5528C10.3561 13.737 10.3561 14.263 9.98754 14.4472L10.4348 15.3416C11.5403 14.7889 11.5403 13.2111 10.4348 12.6584L9.98754 13.5528ZM7.67082 11.2764C6.67347 10.7777 5.5 11.503 5.5 12.618H6.5C6.5 12.2463 6.89116 12.0046 7.22361 12.1708L7.67082 11.2764ZM6 2.5H18V1.5H6V2.5ZM21.5 6V18H22.5V6H21.5ZM18 21.5H6V22.5H18V21.5ZM2.5 18V6H1.5V18H2.5ZM6 21.5C4.067 21.5 2.5 19.933 2.5 18H1.5C1.5 20.4853 3.51472 22.5 6 22.5V21.5ZM21.5 18C21.5 19.933 19.933 21.5 18 21.5V22.5C20.4853 22.5 22.5 20.4853 22.5 18H21.5ZM18 2.5C19.933 2.5 21.5 4.067 21.5 6H22.5C22.5 3.51472 20.4853 1.5 18 1.5V2.5ZM6 1.5C3.51472 1.5 1.5 3.51472 1.5 6H2.5C2.5 4.067 4.067 2.5 6 2.5V1.5ZM2 7.5H22V6.5H2V7.5ZM14 12.5H18V11.5H14V12.5ZM14 16.5H18V15.5H14V16.5Z" fill="#292929"/>
</svg>
