<svg width="24" height="24" viewBox="0 0 24 24" fill="none" xmlns="http://www.w3.org/2000/svg">
<path d="M7.2 19.6L7.5 20H7.5L7.2 19.6ZM10.8 16.9L10.5 16.5L10.5 16.5L10.8 16.9ZM13.2 16.9L13.5 16.5V16.5L13.2 16.9ZM16.8 19.6L16.5 20L16.8 19.6ZM4 6.5C3.72386 6.5 3.5 6.72386 3.5 7C3.5 7.27614 3.72386 7.5 4 7.5V6.5ZM20 7.5C20.2761 7.5 20.5 7.27614 20.5 7C20.5 6.72386 20.2761 6.5 20 6.5V7.5ZM3.5 4V18H4.5V4H3.5ZM7.5 20L11.1 17.3L10.5 16.5L6.9 19.2L7.5 20ZM12.9 17.3L16.5 20L17.1 19.2L13.5 16.5L12.9 17.3ZM20.5 18V4H19.5V18H20.5ZM18 1.5H6V2.5H18V1.5ZM20.5 4C20.5 2.61929 19.3807 1.5 18 1.5V2.5C18.8284 2.5 19.5 3.17157 19.5 4H20.5ZM16.5 20C18.1481 21.2361 20.5 20.0601 20.5 18H19.5C19.5 19.2361 18.0889 19.9416 17.1 19.2L16.5 20ZM11.1 17.3C11.6333 16.9 12.3667 16.9 12.9 17.3L13.5 16.5C12.6111 15.8333 11.3889 15.8333 10.5 16.5L11.1 17.3ZM3.5 18C3.5 20.0601 5.85191 21.2361 7.5 20L6.9 19.2C5.91115 19.9416 4.5 19.2361 4.5 18H3.5ZM4.5 4C4.5 3.17157 5.17157 2.5 6 2.5V1.5C4.61929 1.5 3.5 2.61929 3.5 4H4.5ZM4 7.5H20V6.5H4V7.5Z" fill="#292929"/>
</svg>
