<svg width="24" height="24" viewBox="0 0 24 24" fill="none" xmlns="http://www.w3.org/2000/svg">
<path d="M16.5 2C16.5 1.72386 16.2761 1.5 16 1.5C15.7239 1.5 15.5 1.72386 15.5 2H16.5ZM15.5 5C15.5 5.27614 15.7239 5.5 16 5.5C16.2761 5.5 16.5 5.27614 16.5 5H15.5ZM8.5 2C8.5 1.72386 8.27614 1.5 8 1.5C7.72386 1.5 7.5 1.72386 7.5 2H8.5ZM7.5 5C7.5 5.27614 7.72386 5.5 8 5.5C8.27614 5.5 8.5 5.27614 8.5 5H7.5ZM7 4H17V3H7V4ZM17 21.5H7V22.5H17V21.5ZM3.5 18V9H2.5V18H3.5ZM3.5 9V7.5H2.5V9H3.5ZM20.5 7.5V9H21.5V7.5H20.5ZM20.5 9V18H21.5V9H20.5ZM7 21.5C5.067 21.5 3.5 19.933 3.5 18H2.5C2.5 20.4853 4.51472 22.5 7 22.5V21.5ZM17 22.5C19.4853 22.5 21.5 20.4853 21.5 18H20.5C20.5 19.933 18.933 21.5 17 21.5V22.5ZM17 4C18.933 4 20.5 5.567 20.5 7.5H21.5C21.5 5.01472 19.4853 3 17 3V4ZM7 3C4.51472 3 2.5 5.01472 2.5 7.5H3.5C3.5 5.567 5.067 4 7 4V3ZM3 9.5H21V8.5H3V9.5ZM15.5 2V5H16.5V2H15.5ZM7.5 2V5H8.5V2H7.5Z" fill="#292929"/>
</svg>
