<svg width="24" height="24" viewBox="0 0 24 24" fill="none" xmlns="http://www.w3.org/2000/svg">
<path d="M15 16L14.9019 16.4903C15.123 16.5345 15.3464 16.4253 15.4472 16.2236L15 16ZM8 9L7.77639 8.55279C7.57472 8.65362 7.46549 8.87696 7.50971 9.09806L8 9ZM8.35402 8.82299L8.57762 9.27021H8.57762L8.35402 8.82299ZM9.31654 6.29136L9.78078 6.10566V6.10566L9.31654 6.29136ZM8.50289 4.25722L8.03865 4.44291V4.44291L8.50289 4.25722ZM19.7428 15.4971L19.9285 15.0329L19.7428 15.4971ZM17.7086 14.6835L17.8943 14.2192H17.8943L17.7086 14.6835ZM15.177 15.646L15.6242 15.8696H15.6242L15.177 15.646ZM20.5 17.3541V19H21.5V17.3541H20.5ZM5 3.5H6.64593V2.5H5V3.5ZM15 16C15.0981 15.5097 15.0982 15.5097 15.0983 15.5098C15.0984 15.5098 15.0985 15.5098 15.0985 15.5098C15.0987 15.5098 15.0987 15.5098 15.0988 15.5099C15.0989 15.5099 15.0988 15.5099 15.0986 15.5098C15.0982 15.5097 15.0972 15.5095 15.0956 15.5092C15.0924 15.5085 15.087 15.5074 15.0792 15.5057C15.0638 15.5022 15.0394 15.4967 15.0068 15.4888C14.9417 15.4729 14.8439 15.4476 14.7192 15.4109C14.4696 15.3375 14.1136 15.219 13.697 15.0404C12.8614 14.6823 11.7959 14.0888 10.8536 13.1464L10.1464 13.8536C11.2041 14.9112 12.3886 15.5677 13.303 15.9596C13.7614 16.156 14.1554 16.2875 14.437 16.3703C14.578 16.4118 14.6911 16.4411 14.7705 16.4604C14.8102 16.4701 14.8415 16.4772 14.8636 16.4821C14.8747 16.4846 14.8835 16.4865 14.8899 16.4878C14.8931 16.4885 14.8957 16.489 14.8977 16.4894C14.8988 16.4896 14.8996 16.4898 14.9003 16.49C14.9007 16.49 14.901 16.4901 14.9012 16.4901C14.9014 16.4902 14.9016 16.4902 14.9016 16.4902C14.9018 16.4903 14.9019 16.4903 15 16ZM10.8536 13.1464C9.91117 12.2041 9.31767 11.1386 8.95957 10.303C8.78101 9.8864 8.66247 9.5304 8.58906 9.28079C8.55238 9.1561 8.52707 9.0583 8.51122 8.99315C8.5033 8.96059 8.49776 8.93622 8.49435 8.92077C8.49264 8.91305 8.49147 8.90755 8.4908 8.90438C8.49047 8.9028 8.49026 8.9018 8.49018 8.90139C8.49014 8.90118 8.49013 8.90112 8.49014 8.90122C8.49015 8.90126 8.49017 8.90134 8.49019 8.90147C8.49021 8.90153 8.49023 8.90165 8.49024 8.90168C8.49026 8.9018 8.49029 8.90194 8 9C7.50971 9.09806 7.50974 9.09822 7.50977 9.09838C7.50979 9.09845 7.50982 9.09863 7.50985 9.09876C7.50991 9.09904 7.50997 9.09935 7.51004 9.0997C7.51018 9.1004 7.51035 9.10125 7.51056 9.10225C7.51097 9.10426 7.51151 9.10687 7.51219 9.11008C7.51354 9.11649 7.51542 9.12528 7.51786 9.13636C7.52275 9.1585 7.5299 9.1898 7.53956 9.2295C7.55887 9.30889 7.58824 9.42202 7.62969 9.56296C7.71253 9.8446 7.84399 10.2386 8.04043 10.697C8.43233 11.6114 9.08883 12.7959 10.1464 13.8536L10.8536 13.1464ZM8.22361 9.44721L8.57762 9.27021L8.13041 8.37578L7.77639 8.55279L8.22361 9.44721ZM9.78078 6.10566L8.96713 4.07152L8.03865 4.44291L8.8523 6.47705L9.78078 6.10566ZM19.9285 15.0329L17.8943 14.2192L17.5229 15.1477L19.5571 15.9614L19.9285 15.0329ZM14.7298 15.4224L14.5528 15.7764L15.4472 16.2236L15.6242 15.8696L14.7298 15.4224ZM17.8943 14.2192C16.6871 13.7363 15.3113 14.2594 14.7298 15.4224L15.6242 15.8696C15.9731 15.1718 16.7986 14.858 17.5229 15.1477L17.8943 14.2192ZM8.57762 9.27021C9.74058 8.68873 10.2637 7.31289 9.78078 6.10566L8.8523 6.47705C9.14204 7.20139 8.82818 8.02689 8.13041 8.37578L8.57762 9.27021ZM6.64593 3.5C7.25929 3.5 7.81085 3.87343 8.03865 4.44291L8.96713 4.07152C8.58747 3.12238 7.6682 2.5 6.64593 2.5V3.5ZM21.5 17.3541C21.5 16.3318 20.8776 15.4125 19.9285 15.0329L19.5571 15.9614C20.1266 16.1891 20.5 16.7407 20.5 17.3541H21.5ZM19 20.5C10.4396 20.5 3.5 13.5604 3.5 5H2.5C2.5 14.1127 9.8873 21.5 19 21.5V20.5ZM19 21.5C20.3807 21.5 21.5 20.3807 21.5 19H20.5C20.5 19.8284 19.8284 20.5 19 20.5V21.5ZM3.5 5C3.5 4.17157 4.17157 3.5 5 3.5V2.5C3.61929 2.5 2.5 3.61929 2.5 5H3.5Z" fill="#292929"/>
</svg>
