<svg width="24" height="24" viewBox="0 0 24 24" fill="none" xmlns="http://www.w3.org/2000/svg">
<path d="M2.5 2C2.5 1.72386 2.27614 1.5 2 1.5C1.72386 1.5 1.5 1.72386 1.5 2H2.5ZM22 22.5C22.2761 22.5 22.5 22.2761 22.5 22C22.5 21.7239 22.2761 21.5 22 21.5V22.5ZM15.5 8.5C15.2239 8.5 15 8.72386 15 9C15 9.27614 15.2239 9.5 15.5 9.5V8.5ZM18.2764 9.55279L17.8292 9.77639L18.2764 9.55279ZM18.5528 11.2236C18.6763 11.4706 18.9766 11.5707 19.2236 11.4472C19.4706 11.3237 19.5707 11.0234 19.4472 10.7764L18.5528 11.2236ZM17.9182 9.77413L18.1923 9.35597L17.356 8.80772L17.0818 9.22587L17.9182 9.77413ZM14.7644 13.6729L14.3463 13.3987L14.7644 13.6729ZM13.0726 13.6424L12.6449 13.9014L13.0726 13.6424ZM11.1644 10.4901L10.7367 10.749L11.1644 10.4901ZM9.43044 10.5302L8.99118 10.2914L9.43044 10.5302ZM6.56074 14.7612C6.42883 15.0037 6.51855 15.3074 6.76115 15.4393C7.00375 15.5712 7.30735 15.4814 7.43926 15.2388L6.56074 14.7612ZM1.5 2V18H2.5V2H1.5ZM6 22.5H22V21.5H6V22.5ZM1.5 18C1.5 20.4853 3.51472 22.5 6 22.5V21.5C4.067 21.5 2.5 19.933 2.5 18H1.5ZM15.5 9.5H17.382V8.5H15.5V9.5ZM17.8292 9.77639L18.5528 11.2236L19.4472 10.7764L18.7236 9.32918L17.8292 9.77639ZM17.382 9.5C17.5714 9.5 17.7445 9.607 17.8292 9.77639L18.7236 9.32918C18.4695 8.821 17.9501 8.5 17.382 8.5V9.5ZM17.0818 9.22587L14.3463 13.3987L15.1826 13.947L17.9182 9.77413L17.0818 9.22587ZM13.5004 13.3835L11.5922 10.2311L10.7367 10.749L12.6449 13.9014L13.5004 13.3835ZM8.99118 10.2914L6.56074 14.7612L7.43926 15.2388L9.86971 10.7691L8.99118 10.2914ZM11.5922 10.2311C10.9926 9.24055 9.54432 9.27408 8.99118 10.2914L9.86971 10.7691C10.0541 10.43 10.5368 10.4188 10.7367 10.749L11.5922 10.2311ZM14.3463 13.3987C14.1446 13.7064 13.6909 13.6982 13.5004 13.3835L12.6449 13.9014C13.2164 14.8455 14.5775 14.87 15.1826 13.947L14.3463 13.3987Z" fill="#292929"/>
</svg>
