<svg width="24" height="24" viewBox="0 0 24 24" fill="none" xmlns="http://www.w3.org/2000/svg">
<path d="M6 11.5C5.72386 11.5 5.5 11.7239 5.5 12C5.5 12.2761 5.72386 12.5 6 12.5V11.5ZM20 12.5C20.2761 12.5 20.5 12.2761 20.5 12C20.5 11.7239 20.2761 11.5 20 11.5V12.5ZM2.5 2C2.5 1.72386 2.27614 1.5 2 1.5C1.72386 1.5 1.5 1.72386 1.5 2H2.5ZM22 21.5C22.2761 21.5 22.5 21.2761 22.5 21C22.5 20.7239 22.2761 20.5 22 20.5V21.5ZM6 12.5H7V11.5H6V12.5ZM9.5 10V9H8.5V10H9.5ZM12.5 9V15H13.5V9H12.5ZM17.5 15V14H16.5V15H17.5ZM19 12.5H20V11.5H19V12.5ZM17.5 14C17.5 13.1716 18.1716 12.5 19 12.5V11.5C17.6193 11.5 16.5 12.6193 16.5 14H17.5ZM15 17.5C16.3807 17.5 17.5 16.3807 17.5 15H16.5C16.5 15.8284 15.8284 16.5 15 16.5V17.5ZM12.5 15C12.5 16.3807 13.6193 17.5 15 17.5V16.5C14.1716 16.5 13.5 15.8284 13.5 15H12.5ZM11 7.5C11.8284 7.5 12.5 8.17157 12.5 9H13.5C13.5 7.61929 12.3807 6.5 11 6.5V7.5ZM9.5 9C9.5 8.17157 10.1716 7.5 11 7.5V6.5C9.61929 6.5 8.5 7.61929 8.5 9H9.5ZM7 12.5C8.38071 12.5 9.5 11.3807 9.5 10H8.5C8.5 10.8284 7.82843 11.5 7 11.5V12.5ZM1.5 2V17H2.5V2H1.5ZM6 21.5H22V20.5H6V21.5ZM1.5 17C1.5 19.4853 3.51472 21.5 6 21.5V20.5C4.067 20.5 2.5 18.933 2.5 17H1.5Z" fill="#292929"/>
</svg>
