<svg width="24" height="24" viewBox="0 0 24 24" fill="none" xmlns="http://www.w3.org/2000/svg">
<path d="M2.5 2C2.5 1.72386 2.27614 1.5 2 1.5C1.72386 1.5 1.5 1.72386 1.5 2H2.5ZM22 22.5C22.2761 22.5 22.5 22.2761 22.5 22C22.5 21.7239 22.2761 21.5 22 21.5V22.5ZM15.5 14.5C15.2239 14.5 15 14.7239 15 15C15 15.2761 15.2239 15.5 15.5 15.5V14.5ZM18.2764 14.4472L17.8292 14.2236V14.2236L18.2764 14.4472ZM19.4472 13.2236C19.5707 12.9766 19.4706 12.6763 19.2236 12.5528C18.9766 12.4293 18.6763 12.5294 18.5528 12.7764L19.4472 13.2236ZM17.0818 14.7741L17.356 15.1923L18.1923 14.644L17.9182 14.2259L17.0818 14.7741ZM14.7644 10.3271L14.3463 10.6013L14.7644 10.3271ZM13.0726 10.3576L12.6449 10.0986L13.0726 10.3576ZM11.1644 13.5099L10.7367 13.251L11.1644 13.5099ZM9.43044 13.4698L8.99118 13.7086L9.43044 13.4698ZM7.43926 8.76115C7.30735 8.51855 7.00375 8.42883 6.76115 8.56074C6.51855 8.69265 6.42883 8.99625 6.56074 9.23885L7.43926 8.76115ZM1.5 2V18H2.5V2H1.5ZM6 22.5H22V21.5H6V22.5ZM1.5 18C1.5 20.4853 3.51472 22.5 6 22.5V21.5C4.067 21.5 2.5 19.933 2.5 18H1.5ZM15.5 15.5H17.382V14.5H15.5V15.5ZM18.7236 14.6708L19.4472 13.2236L18.5528 12.7764L17.8292 14.2236L18.7236 14.6708ZM17.382 15.5C17.9501 15.5 18.4695 15.179 18.7236 14.6708L17.8292 14.2236C17.7445 14.393 17.5714 14.5 17.382 14.5V15.5ZM17.9182 14.2259L15.1826 10.053L14.3463 10.6013L17.0818 14.7741L17.9182 14.2259ZM12.6449 10.0986L10.7367 13.251L11.5922 13.7689L13.5004 10.6165L12.6449 10.0986ZM9.86971 13.2309L7.43926 8.76115L6.56074 9.23885L8.99118 13.7086L9.86971 13.2309ZM10.7367 13.251C10.5368 13.5812 10.0541 13.57 9.86971 13.2309L8.99118 13.7086C9.54432 14.7259 10.9926 14.7594 11.5922 13.7689L10.7367 13.251ZM15.1826 10.053C14.5775 9.13001 13.2164 9.15449 12.6449 10.0986L13.5004 10.6165C13.6909 10.3018 14.1446 10.2936 14.3463 10.6013L15.1826 10.053Z" fill="#292929"/>
</svg>
