<svg width="24" height="24" viewBox="0 0 24 24" fill="none" xmlns="http://www.w3.org/2000/svg">
<path d="M13.9872 2.19744L14.0861 1.70731L13.9872 2.19744ZM21.8025 10.0128L22.2927 9.91394L21.8025 10.0128ZM9.11064 4.71062C9.37994 4.64951 9.54871 4.38167 9.4876 4.11237C9.4265 3.84307 9.15865 3.6743 8.88936 3.73541L9.11064 4.71062ZM20.2646 15.1106C20.3257 14.8413 20.1569 14.5735 19.8876 14.5124C19.6183 14.4513 19.3505 14.6201 19.2894 14.8894L20.2646 15.1106ZM13.8884 2.68758C17.6197 3.4399 20.5601 6.38031 21.3124 10.1116L22.2927 9.91394C21.4608 5.78804 18.2119 2.53919 14.0861 1.70731L13.8884 2.68758ZM20 11.5H14V12.5H20V11.5ZM12.5 9.99999V3.99999H11.5V9.99999H12.5ZM14 11.5C13.1716 11.5 12.5 10.8284 12.5 9.99999H11.5C11.5 11.3807 12.6193 12.5 14 12.5V11.5ZM14.0861 1.70731C12.6248 1.41269 11.5 2.65384 11.5 3.99999H12.5C12.5 3.137 13.1841 2.54556 13.8884 2.68758L14.0861 1.70731ZM21.3124 10.1116C21.4544 10.8159 20.863 11.5 20 11.5V12.5C21.3461 12.5 22.5873 11.3751 22.2927 9.91394L21.3124 10.1116ZM11 21.5C6.30558 21.5 2.5 17.6944 2.5 13H1.5C1.5 18.2467 5.75329 22.5 11 22.5V21.5ZM2.5 13C2.5 8.95541 5.32541 5.56953 9.11064 4.71062L8.88936 3.73541C4.65864 4.69541 1.5 8.47823 1.5 13H2.5ZM19.2894 14.8894C18.4305 18.6746 15.0446 21.5 11 21.5V22.5C15.5218 22.5 19.3046 19.3414 20.2646 15.1106L19.2894 14.8894Z" fill="#292929"/>
</svg>
