<svg width="24" height="24" viewBox="0 0 24 24" fill="none" xmlns="http://www.w3.org/2000/svg">
<path d="M8.33448 11.6284C8.12923 11.4436 7.81308 11.4603 7.62835 11.6655C7.44362 11.8708 7.46026 12.1869 7.66552 12.3716L8.33448 11.6284ZM10.5347 14.2812L10.8692 13.9096L10.5347 14.2812ZM11.993 14.1519L12.3877 14.4588L11.993 14.1519ZM16.3947 9.30697C16.5642 9.089 16.5249 8.77486 16.307 8.60532C16.089 8.43579 15.7749 8.47506 15.6053 8.69303L16.3947 9.30697ZM12 22.5C17.799 22.5 22.5 17.799 22.5 12H21.5C21.5 17.2467 17.2467 21.5 12 21.5V22.5ZM1.5 12C1.5 17.799 6.20101 22.5 12 22.5V21.5C6.7533 21.5 2.5 17.2467 2.5 12H1.5ZM12 1.5C6.20101 1.5 1.5 6.20101 1.5 12H2.5C2.5 6.7533 6.7533 2.5 12 2.5V1.5ZM12 2.5C17.2467 2.5 21.5 6.7533 21.5 12H22.5C22.5 6.20101 17.799 1.5 12 1.5V2.5ZM7.66552 12.3716L10.2002 14.6529L10.8692 13.9096L8.33448 11.6284L7.66552 12.3716ZM12.3877 14.4588L16.3947 9.30697L15.6053 8.69303L11.5983 13.8449L12.3877 14.4588ZM10.2002 14.6529C10.8475 15.2354 11.8531 15.1462 12.3877 14.4588L11.5983 13.8449C11.4201 14.074 11.0849 14.1037 10.8692 13.9096L10.2002 14.6529Z" fill="#292929"/>
</svg>
