<svg width="24" height="24" viewBox="0 0 24 24" fill="none" xmlns="http://www.w3.org/2000/svg">
<path d="M16.5962 8.11093C16.7915 7.91567 16.7915 7.59909 16.5962 7.40382C16.401 7.20856 16.0844 7.20856 15.8891 7.40382L16.5962 8.11093ZM7.40383 15.8891C7.20857 16.0844 7.20857 16.4009 7.40383 16.5962C7.59909 16.7915 7.91568 16.7915 8.11094 16.5962L7.40383 15.8891ZM15.8891 16.5962C16.0844 16.7914 16.401 16.7914 16.5962 16.5962C16.7915 16.4009 16.7915 16.0843 16.5962 15.8891L15.8891 16.5962ZM8.11094 7.40377C7.91568 7.20851 7.59909 7.20851 7.40383 7.40377C7.20857 7.59903 7.20857 7.91562 7.40383 8.11088L8.11094 7.40377ZM15.8891 7.40382L7.40383 15.8891L8.11094 16.5962L16.5962 8.11093L15.8891 7.40382ZM16.5962 15.8891L8.11094 7.40377L7.40383 8.11088L15.8891 16.5962L16.5962 15.8891Z" fill="#292929"/>
</svg>
