<svg width="24" height="24" viewBox="0 0 24 24" fill="none" xmlns="http://www.w3.org/2000/svg">
<path d="M12 2V1.5V2ZM18 2V2.5V2ZM12 21.5H6V22.5H12V21.5ZM2.5 18V12H1.5V18H2.5ZM6 21.5C4.067 21.5 2.5 19.933 2.5 18H1.5C1.5 20.4853 3.51472 22.5 6 22.5V21.5ZM15.5 18C15.5 19.933 13.933 21.5 12 21.5V22.5C14.4853 22.5 16.5 20.4853 16.5 18H15.5ZM12 8.5C13.933 8.5 15.5 10.067 15.5 12H16.5C16.5 9.51472 14.4853 7.5 12 7.5V8.5ZM6 7.5C3.51472 7.5 1.5 9.51472 1.5 12H2.5C2.5 10.067 4.067 8.5 6 8.5V7.5ZM12 2.5L18 2.5V1.5L12 1.5V2.5ZM21.5 6V12H22.5V6H21.5ZM21.5 12C21.5 13.933 19.933 15.5 18 15.5V16.5C20.4853 16.5 22.5 14.4853 22.5 12H21.5ZM18 2.5C19.933 2.5 21.5 4.067 21.5 6H22.5C22.5 3.51472 20.4853 1.5 18 1.5V2.5ZM12 1.5C9.51472 1.5 7.5 3.51472 7.5 6H8.5C8.5 4.067 10.067 2.5 12 2.5V1.5ZM8.5 8V6H7.5V8H8.5ZM6 8.5H8V7.5H6V8.5ZM8 8.5H12V7.5H8V8.5ZM18 15.5H16V16.5H18V15.5ZM15.5 12V16H16.5V12H15.5ZM15.5 16V18H16.5V16H15.5Z" fill="#292929"/>
</svg>
