<svg width="24" height="24" viewBox="0 0 24 24" fill="none" xmlns="http://www.w3.org/2000/svg">
<path d="M4 6C4 3.79086 5.79086 2 8 2H15.3431C16.404 2 17.4214 2.42143 18.1716 3.17157L20.8284 5.82843C21.5786 6.57857 22 7.59599 22 8.65685V18C22 20.2091 20.2091 22 18 22H8C5.79086 22 4 20.2091 4 18V6Z" stroke="#292929" stroke-linejoin="round"/>
<path d="M9 6.5C8.72386 6.5 8.5 6.72386 8.5 7C8.5 7.27614 8.72386 7.5 9 7.5V6.5ZM17 7.5C17.2761 7.5 17.5 7.27614 17.5 7C17.5 6.72386 17.2761 6.5 17 6.5V7.5ZM9 7.5L17 7.5V6.5L9 6.5V7.5Z" fill="#292929"/>
<path d="M9 11.5C8.72386 11.5 8.5 11.7239 8.5 12C8.5 12.2761 8.72386 12.5 9 12.5V11.5ZM17 12.5C17.2761 12.5 17.5 12.2761 17.5 12C17.5 11.7239 17.2761 11.5 17 11.5V12.5ZM9 12.5H17V11.5H9V12.5Z" fill="#292929"/>
<path d="M9 16.5C8.72386 16.5 8.5 16.7239 8.5 17C8.5 17.2761 8.72386 17.5 9 17.5V16.5ZM13 17.5C13.2761 17.5 13.5 17.2761 13.5 17C13.5 16.7239 13.2761 16.5 13 16.5V17.5ZM9 17.5H13V16.5H9V17.5Z" fill="#292929"/>
</svg>
