<svg width="24" height="24" viewBox="0 0 24 24" fill="none" xmlns="http://www.w3.org/2000/svg">
<path d="M3 20.5C2.72386 20.5 2.5 20.7239 2.5 21C2.5 21.2761 2.72386 21.5 3 21.5V20.5ZM21 21.5C21.2761 21.5 21.5 21.2761 21.5 21C21.5 20.7239 21.2761 20.5 21 20.5V21.5ZM7.31963 17.9881L7.24892 17.4931L7.31963 17.9881ZM6.01193 16.6804L5.51695 16.6097L6.01193 16.6804ZM7.15616 11.94L6.80261 11.5864L7.15616 11.94ZM6.50231 13.2477L6.99729 13.3184L6.50231 13.2477ZM12.06 16.8438L12.4136 17.1974L12.06 16.8438ZM10.7523 17.4977L10.823 17.9927L10.7523 17.4977ZM20.3229 5.31171L19.9694 5.66526L20.3229 5.31171ZM20.3229 8.58096L19.9694 8.22741L20.3229 8.58096ZM18.6883 3.67708L19.0418 3.32353V3.32353L18.6883 3.67708ZM15.419 3.67708L15.7726 4.03064L15.419 3.67708ZM14.2844 5.31171C14.2844 5.03557 14.0606 4.81171 13.7844 4.81171C13.5083 4.81171 13.2844 5.03557 13.2844 5.31171H14.2844ZM18.6883 10.7156C18.9644 10.7156 19.1883 10.4917 19.1883 10.2156C19.1883 9.93945 18.9644 9.71559 18.6883 9.71559V10.7156ZM3 21.5H21V20.5H3V21.5ZM18.3347 4.03064L19.9694 5.66526L20.6765 4.95816L19.0418 3.32353L18.3347 4.03064ZM19.9694 8.22741L11.7065 16.4903L12.4136 17.1974L20.6765 8.93451L19.9694 8.22741ZM7.50972 12.2935L15.7726 4.03064L15.0655 3.32353L6.80261 11.5864L7.50972 12.2935ZM10.6816 17.0027L7.24892 17.4931L7.39034 18.483L10.823 17.9927L10.6816 17.0027ZM6.5069 16.7511L6.99729 13.3184L6.00734 13.1769L5.51695 16.6097L6.5069 16.7511ZM7.24892 17.4931C6.81607 17.5549 6.44507 17.1839 6.5069 16.7511L5.51695 16.6097C5.36084 17.7025 6.29753 18.6392 7.39034 18.483L7.24892 17.4931ZM6.80261 11.5864C6.37243 12.0166 6.09338 12.5747 6.00734 13.1769L6.99729 13.3184C7.05273 12.9303 7.23253 12.5707 7.50972 12.2935L6.80261 11.5864ZM11.7065 16.4903C11.4293 16.7675 11.0697 16.9473 10.6816 17.0027L10.823 17.9927C11.4253 17.9066 11.9834 17.6276 12.4136 17.1974L11.7065 16.4903ZM19.9694 5.66526C20.6769 6.37278 20.6769 7.51989 19.9694 8.22741L20.6765 8.93451C21.7745 7.83647 21.7745 6.0562 20.6765 4.95816L19.9694 5.66526ZM19.0418 3.32353C17.9438 2.22549 16.1635 2.22549 15.0655 3.32353L15.7726 4.03064C16.4801 3.32312 17.6272 3.32312 18.3347 4.03064L19.0418 3.32353ZM13.7844 5.31171C13.2844 5.31171 13.2844 5.31196 13.2844 5.31222C13.2844 5.31231 13.2844 5.31258 13.2844 5.31277C13.2844 5.31314 13.2844 5.31354 13.2844 5.31397C13.2844 5.31483 13.2844 5.31578 13.2844 5.31684C13.2844 5.31896 13.2845 5.32147 13.2845 5.32439C13.2846 5.33022 13.2848 5.33763 13.2851 5.34659C13.2856 5.3645 13.2867 5.38857 13.2887 5.4184C13.2927 5.47804 13.3003 5.5608 13.315 5.66337C13.3443 5.86843 13.4017 6.15342 13.5144 6.49147C13.7403 7.1693 14.1871 8.05612 15.0655 8.93452L15.7726 8.22741C15.0164 7.47118 14.6458 6.72337 14.4631 6.17524C14.3714 5.90031 14.3267 5.67447 14.3049 5.52195C14.294 5.44574 14.2889 5.38802 14.2865 5.35188C14.2853 5.33382 14.2848 5.32118 14.2845 5.31435C14.2844 5.31093 14.2844 5.30897 14.2844 5.30852C14.2844 5.30829 14.2844 5.30844 14.2844 5.30897C14.2844 5.30923 14.2844 5.30959 14.2844 5.31005C14.2844 5.31028 14.2844 5.31053 14.2844 5.31081C14.2844 5.31095 14.2844 5.31117 14.2844 5.31124C14.2844 5.31147 14.2844 5.31171 13.7844 5.31171ZM15.0655 8.93452C15.9439 9.81291 16.8307 10.2597 17.5085 10.4856C17.8466 10.5983 18.1316 10.6557 18.3366 10.685C18.4392 10.6997 18.522 10.7073 18.5816 10.7113C18.6114 10.7133 18.6355 10.7144 18.6534 10.7149C18.6624 10.7152 18.6698 10.7154 18.6756 10.7155C18.6785 10.7155 18.681 10.7156 18.6832 10.7156C18.6842 10.7156 18.6852 10.7156 18.686 10.7156C18.6865 10.7156 18.6869 10.7156 18.6872 10.7156C18.6874 10.7156 18.6877 10.7156 18.6878 10.7156C18.688 10.7156 18.6883 10.7156 18.6883 10.2156C18.6883 9.71559 18.6885 9.71559 18.6888 9.71559C18.6888 9.71559 18.6891 9.71559 18.6892 9.71559C18.6895 9.71559 18.6897 9.71559 18.6899 9.71559C18.6904 9.71559 18.6908 9.7156 18.691 9.7156C18.6916 9.7156 18.6917 9.71561 18.6915 9.7156C18.691 9.71559 18.6891 9.71556 18.6857 9.71545C18.6788 9.71523 18.6662 9.71471 18.6481 9.7135C18.612 9.71109 18.5543 9.70596 18.478 9.69507C18.3255 9.67329 18.0997 9.62856 17.8248 9.53692C17.2766 9.35421 16.5288 8.98364 15.7726 8.22741L15.0655 8.93452Z" fill="#292929"/>
</svg>
