<svg width="24" height="24" viewBox="0 0 24 24" fill="none" xmlns="http://www.w3.org/2000/svg">
<path d="M4.35361 3.64645C4.15835 3.45118 3.84177 3.45118 3.64651 3.64645C3.45125 3.84171 3.45125 4.15829 3.64651 4.35355L4.35361 3.64645ZM19.6465 20.3536C19.8418 20.5488 20.1584 20.5488 20.3536 20.3536C20.5489 20.1583 20.5489 19.8417 20.3536 19.6464L19.6465 20.3536ZM14.3335 14.6087C14.5393 14.4245 14.5568 14.1084 14.3726 13.9026C14.1885 13.6969 13.8724 13.6794 13.6666 13.8635L14.3335 14.6087ZM10.1365 10.3335C10.3207 10.1277 10.3032 9.8116 10.0974 9.62743C9.89165 9.44327 9.57555 9.46078 9.39139 9.66654L10.1365 10.3335ZM2.86977 14.1469L2.50735 14.4914H2.50735L2.86977 14.1469ZM21.1304 9.8531L21.4928 9.50864L21.1304 9.8531ZM21.1304 14.1469L21.4928 14.4914V14.4914L21.1304 14.1469ZM2.86977 9.8531L2.50735 9.50864L2.50735 9.50864L2.86977 9.8531ZM19.2795 15.2306C19.0712 15.4119 19.0494 15.7278 19.2307 15.936C19.4121 16.1443 19.7279 16.1661 19.9361 15.9848L19.2795 15.2306ZM9.26317 4.93554C8.99968 5.01816 8.85305 5.29874 8.93566 5.56223C9.01828 5.82573 9.29886 5.97235 9.56235 5.88974L9.26317 4.93554ZM6.76909 7.22484C7.00185 7.07626 7.0701 6.76712 6.92151 6.53435C6.77293 6.30159 6.46379 6.23335 6.23103 6.38193L6.76909 7.22484ZM17.4227 17.8328C17.6593 17.6905 17.7357 17.3832 17.5933 17.1466C17.4509 16.91 17.1437 16.8336 16.9071 16.976L17.4227 17.8328ZM3.64651 4.35355L19.6465 20.3536L20.3536 19.6464L4.35361 3.64645L3.64651 4.35355ZM8.50006 12C8.50006 13.933 10.0671 15.5 12.0001 15.5V14.5C10.6193 14.5 9.50006 13.3807 9.50006 12H8.50006ZM12.0001 15.5C12.8962 15.5 13.7146 15.1626 14.3335 14.6087L13.6666 13.8635C13.224 14.2597 12.6407 14.5 12.0001 14.5V15.5ZM9.39139 9.66654C8.83747 10.2854 8.50006 11.1039 8.50006 12H9.50006C9.50006 11.3594 9.74036 10.7761 10.1365 10.3335L9.39139 9.66654ZM2.50735 14.4914C4.47369 16.5602 7.96088 19.5 12.0001 19.5V18.5C8.40821 18.5 5.17741 15.8491 3.23219 13.8024L2.50735 14.4914ZM21.4928 9.50864C19.5264 7.43976 16.0392 4.5 12.0001 4.5V5.5C15.5919 5.5 18.8227 8.1509 20.7679 10.1976L21.4928 9.50864ZM21.4928 14.4914C22.8358 13.0783 22.8358 10.9217 21.4928 9.50864L20.7679 10.1976C21.7441 11.2246 21.7441 12.7754 20.7679 13.8024L21.4928 14.4914ZM3.23219 13.8024C2.25602 12.7754 2.25602 11.2246 3.23219 10.1976L2.50735 9.50864C1.1643 10.9217 1.1643 13.0783 2.50735 14.4914L3.23219 13.8024ZM19.9361 15.9848C20.5212 15.4755 21.0436 14.9639 21.4928 14.4914L20.7679 13.8024C20.337 14.2559 19.8372 14.745 19.2795 15.2306L19.9361 15.9848ZM12.0001 4.5C11.0512 4.5 10.1342 4.66243 9.26317 4.93554L9.56235 5.88974C10.3503 5.64269 11.1661 5.5 12.0001 5.5V4.5ZM6.23103 6.38193C4.72755 7.34166 3.45271 8.51399 2.50735 9.50864L3.23219 10.1976C4.14269 9.23958 5.35545 8.12721 6.76909 7.22484L6.23103 6.38193ZM12.0001 19.5C13.9878 19.5 15.8359 18.7877 17.4227 17.8328L16.9071 16.976C15.4177 17.8722 13.7485 18.5 12.0001 18.5V19.5Z" fill="#292929"/>
</svg>
