<svg width="24" height="24" viewBox="0 0 24 24" fill="none" xmlns="http://www.w3.org/2000/svg">
<path fill-rule="evenodd" clip-rule="evenodd" d="M3.46973 4.53033C3.17684 4.23744 3.17684 3.76256 3.46973 3.46967C3.76262 3.17678 4.2375 3.17678 4.53039 3.46967L20.5304 19.4697C20.8233 19.7626 20.8233 20.2374 20.5304 20.5303C20.2375 20.8232 19.7626 20.8232 19.4697 20.5303L16.643 17.7036C15.2337 18.4709 13.6601 19 12.0001 19C8.18455 19 4.82555 16.2047 2.86977 14.1469C1.71016 12.9268 1.71016 11.0732 2.86977 9.8531C3.69959 8.98001 4.78202 7.97414 6.04474 7.10534L3.46973 4.53033ZM9.41543 10.476C9.15151 10.9227 9.00006 11.4436 9.00006 12C9.00006 13.6569 10.3432 15 12.0001 15C12.5564 15 13.0774 14.8486 13.524 14.5846L9.41543 10.476ZM12.0001 5C15.8156 5 19.1746 7.79533 21.1304 9.8531C22.29 11.0732 22.29 12.9268 21.1304 14.1469C20.6903 14.6099 20.1792 15.1103 19.6078 15.6077L9.41276 5.41264C10.2422 5.15256 11.1087 5 12.0001 5Z" fill="#292929"/>
</svg>
