<svg width="24" height="24" viewBox="0 0 24 24" fill="none" xmlns="http://www.w3.org/2000/svg">
<path d="M2.86971 14.1469L2.50729 14.4914L2.86971 14.1469ZM2.86971 9.8531L2.50729 9.50864L2.86971 9.8531ZM21.1303 14.1469L21.4927 14.4914L21.1303 14.1469ZM21.1303 9.8531L21.4927 9.50864L21.1303 9.8531ZM20.7679 13.8024C18.8226 15.8491 15.5918 18.5 12 18.5V19.5C16.0392 19.5 19.5264 16.5602 21.4927 14.4914L20.7679 13.8024ZM12 18.5C8.40815 18.5 5.17735 15.8491 3.23213 13.8024L2.50729 14.4914C4.47363 16.5602 7.96082 19.5 12 19.5V18.5ZM3.23213 10.1976C5.17735 8.1509 8.40815 5.5 12 5.5V4.5C7.96082 4.5 4.47363 7.43976 2.50729 9.50864L3.23213 10.1976ZM12 5.5C15.5918 5.5 18.8226 8.1509 20.7679 10.1976L21.4927 9.50864C19.5264 7.43976 16.0392 4.5 12 4.5V5.5ZM3.23213 13.8024C2.25596 12.7754 2.25596 11.2246 3.23213 10.1976L2.50729 9.50864C1.16424 10.9217 1.16424 13.0783 2.50729 14.4914L3.23213 13.8024ZM21.4927 14.4914C22.8358 13.0783 22.8358 10.9217 21.4927 9.50864L20.7679 10.1976C21.744 11.2246 21.744 12.7754 20.7679 13.8024L21.4927 14.4914ZM14.5 12C14.5 13.3807 13.3807 14.5 12 14.5V15.5C13.933 15.5 15.5 13.933 15.5 12H14.5ZM12 14.5C10.6193 14.5 9.5 13.3807 9.5 12H8.5C8.5 13.933 10.067 15.5 12 15.5V14.5ZM9.5 12C9.5 10.6193 10.6193 9.5 12 9.5V8.5C10.067 8.5 8.5 10.067 8.5 12H9.5ZM12 9.5C13.3807 9.5 14.5 10.6193 14.5 12H15.5C15.5 10.067 13.933 8.5 12 8.5V9.5Z" fill="#292929"/>
</svg>
