<svg width="24" height="24" viewBox="0 0 24 24" fill="none" xmlns="http://www.w3.org/2000/svg">
<path fill-rule="evenodd" clip-rule="evenodd" d="M2 16.5V5C2 3.34315 3.34315 2 5 2H15C16.6569 2 18 3.34315 18 5V16.5H9.3C8.85817 16.5 8.5 16.8582 8.5 17.3C8.5 19.0673 7.0425 20.5 5.27519 20.5C3.48027 20.5 2 19.0449 2 17.25V16.5ZM21.8766 18.9899C21.4361 20.7202 19.8675 22 18 22H6C7.86748 22 9.43606 20.7202 9.87657 18.9899C10.0128 18.4547 10.4477 18 11 18H21C21.5523 18 22.0128 18.4547 21.8766 18.9899Z" fill="#292929"/>
<path d="M6.46875 8.63379V8.25781C6.46875 7.98763 6.52734 7.74186 6.64453 7.52051C6.76172 7.29915 6.93424 7.12174 7.16211 6.98828C7.38997 6.85482 7.66992 6.78809 8.00195 6.78809C8.34375 6.78809 8.62858 6.85482 8.85645 6.98828C9.08757 7.12174 9.26009 7.29915 9.37402 7.52051C9.49121 7.74186 9.5498 7.98763 9.5498 8.25781V8.63379C9.5498 8.89746 9.49121 9.13997 9.37402 9.36133C9.26009 9.58268 9.08919 9.76009 8.86133 9.89355C8.63346 10.027 8.35189 10.0938 8.0166 10.0938C7.67806 10.0938 7.39323 10.027 7.16211 9.89355C6.93424 9.76009 6.76172 9.58268 6.64453 9.36133C6.52734 9.13997 6.46875 8.89746 6.46875 8.63379ZM7.40137 8.25781V8.63379C7.40137 8.74772 7.42253 8.85677 7.46484 8.96094C7.51042 9.06185 7.57878 9.14486 7.66992 9.20996C7.76432 9.27181 7.87826 9.30273 8.01172 9.30273C8.15169 9.30273 8.26562 9.27181 8.35352 9.20996C8.44141 9.14486 8.50651 9.06185 8.54883 8.96094C8.59115 8.85677 8.6123 8.74772 8.6123 8.63379V8.25781C8.6123 8.13737 8.58952 8.02669 8.54395 7.92578C8.50163 7.82161 8.4349 7.73861 8.34375 7.67676C8.25586 7.61165 8.14193 7.5791 8.00195 7.5791C7.87174 7.5791 7.76107 7.61165 7.66992 7.67676C7.57878 7.73861 7.51042 7.82161 7.46484 7.92578C7.42253 8.02669 7.40137 8.13737 7.40137 8.25781ZM9.86719 12.6328V12.2568C9.86719 11.9899 9.92578 11.7458 10.043 11.5244C10.1634 11.3031 10.3376 11.1257 10.5654 10.9922C10.7965 10.8587 11.0798 10.792 11.415 10.792C11.7536 10.792 12.0368 10.8587 12.2646 10.9922C12.4925 11.1257 12.665 11.3031 12.7822 11.5244C12.8994 11.7458 12.958 11.9899 12.958 12.2568V12.6328C12.958 12.8997 12.8994 13.1439 12.7822 13.3652C12.6683 13.5866 12.4974 13.764 12.2695 13.8975C12.0417 14.0309 11.7601 14.0977 11.4248 14.0977C11.0863 14.0977 10.8014 14.0309 10.5703 13.8975C10.3392 13.764 10.1634 13.5866 10.043 13.3652C9.92578 13.1439 9.86719 12.8997 9.86719 12.6328ZM10.8047 12.2568V12.6328C10.8047 12.75 10.8307 12.8607 10.8828 12.9648C10.9349 13.069 11.0065 13.152 11.0977 13.2139C11.1921 13.2757 11.3011 13.3066 11.4248 13.3066C11.5811 13.3066 11.7031 13.2757 11.791 13.2139C11.8789 13.152 11.9391 13.069 11.9717 12.9648C12.0075 12.8607 12.0254 12.75 12.0254 12.6328V12.2568C12.0254 12.1396 12.0026 12.0306 11.957 11.9297C11.9115 11.8255 11.8431 11.7425 11.752 11.6807C11.6641 11.6156 11.5518 11.583 11.415 11.583C11.2783 11.583 11.1644 11.6156 11.0732 11.6807C10.9854 11.7425 10.9186 11.8255 10.873 11.9297C10.8275 12.0306 10.8047 12.1396 10.8047 12.2568ZM11.7617 7.90625L8.29004 13.4629L7.60645 13.1016L11.0781 7.54492L11.7617 7.90625Z" fill="white"/>
</svg>
