<svg width="24" height="24" viewBox="0 0 24 24" fill="none" xmlns="http://www.w3.org/2000/svg">
<path d="M21.8766 18.9899L22.3611 19.1132V19.1132L21.8766 18.9899ZM9.87657 18.9899L10.3611 19.1132L9.87657 18.9899ZM21.392 18.8665C21.0066 20.3807 19.6334 21.5 18 21.5V22.5C20.1016 22.5 21.8656 21.0598 22.3611 19.1132L21.392 18.8665ZM9.39203 18.8665C9.00656 20.3807 7.63337 21.5 6 21.5V22.5C8.1016 22.5 9.86556 21.0598 10.3611 19.1132L9.39203 18.8665ZM1.5 18C1.5 20.4853 3.51472 22.5 6 22.5V21.5C4.067 21.5 2.5 19.933 2.5 18H1.5ZM18 21.5H6V22.5H18V21.5ZM2.5 18V5H1.5V18H2.5ZM5 2.5H15V1.5H5V2.5ZM11 18.5H18V17.5H11V18.5ZM18 18.5H21V17.5H18V18.5ZM17.5 5V18H18.5V5H17.5ZM15 2.5C16.3807 2.5 17.5 3.61929 17.5 5H18.5C18.5 3.067 16.933 1.5 15 1.5V2.5ZM10.3611 19.1132C10.46 18.7247 10.7454 18.5 11 18.5V17.5C10.15 17.5 9.56563 18.1846 9.39203 18.8665L10.3611 19.1132ZM2.5 5C2.5 3.61929 3.61929 2.5 5 2.5V1.5C3.067 1.5 1.5 3.067 1.5 5H2.5ZM22.3611 19.1132C22.6001 18.1745 21.782 17.5 21 17.5V18.5C21.1415 18.5 21.2601 18.5589 21.3296 18.6339C21.3928 18.7022 21.4144 18.7786 21.392 18.8665L22.3611 19.1132Z" fill="#292929"/>
<path d="M6.48828 8.63379V8.25781C6.48828 7.98763 6.54688 7.74186 6.66406 7.52051C6.78125 7.29915 6.95215 7.12174 7.17676 6.98828C7.40137 6.85482 7.67155 6.78809 7.9873 6.78809C8.31283 6.78809 8.58626 6.85482 8.80762 6.98828C9.03223 7.12174 9.20312 7.29915 9.32031 7.52051C9.4375 7.74186 9.49609 7.98763 9.49609 8.25781V8.63379C9.49609 8.89746 9.4375 9.13997 9.32031 9.36133C9.20638 9.58268 9.03711 9.76009 8.8125 9.89355C8.59115 10.027 8.31934 10.0938 7.99707 10.0938C7.67806 10.0938 7.40462 10.027 7.17676 9.89355C6.95215 9.76009 6.78125 9.58268 6.66406 9.36133C6.54688 9.13997 6.48828 8.89746 6.48828 8.63379ZM7.30371 8.25781V8.63379C7.30371 8.764 7.32812 8.8877 7.37695 9.00488C7.42904 9.12207 7.50716 9.21647 7.61133 9.28809C7.71549 9.3597 7.84408 9.39551 7.99707 9.39551C8.15332 9.39551 8.28027 9.3597 8.37793 9.28809C8.47884 9.21647 8.55371 9.12207 8.60254 9.00488C8.65137 8.8877 8.67578 8.764 8.67578 8.63379V8.25781C8.67578 8.12435 8.64974 7.99902 8.59766 7.88184C8.54883 7.76139 8.47396 7.66536 8.37305 7.59375C8.27214 7.52214 8.14355 7.48633 7.9873 7.48633C7.83757 7.48633 7.71061 7.52214 7.60645 7.59375C7.50553 7.66536 7.42904 7.76139 7.37695 7.88184C7.32812 7.99902 7.30371 8.12435 7.30371 8.25781ZM9.91602 12.6377V12.2568C9.91602 11.9899 9.97461 11.7458 10.0918 11.5244C10.2122 11.3031 10.3848 11.1257 10.6094 10.9922C10.834 10.8587 11.1042 10.792 11.4199 10.792C11.7454 10.792 12.0189 10.8587 12.2402 10.9922C12.4648 11.1257 12.6341 11.3031 12.748 11.5244C12.8652 11.7458 12.9238 11.9899 12.9238 12.2568V12.6377C12.9238 12.9046 12.8652 13.1488 12.748 13.3701C12.6341 13.5915 12.4665 13.7689 12.2451 13.9023C12.0238 14.0358 11.7536 14.1025 11.4346 14.1025C11.1123 14.1025 10.8372 14.0358 10.6094 13.9023C10.3848 13.7689 10.2122 13.5915 10.0918 13.3701C9.97461 13.1488 9.91602 12.9046 9.91602 12.6377ZM10.7363 12.2568V12.6377C10.7363 12.7679 10.7624 12.8916 10.8145 13.0088C10.8698 13.126 10.9495 13.222 11.0537 13.2969C11.1579 13.3685 11.2832 13.4043 11.4297 13.4043C11.5957 13.4043 11.7292 13.3685 11.8301 13.2969C11.931 13.222 12.0026 13.1276 12.0449 13.0137C12.0905 12.8965 12.1133 12.7712 12.1133 12.6377V12.2568C12.1133 12.1234 12.0872 11.998 12.0352 11.8809C11.9863 11.7637 11.9098 11.6693 11.8057 11.5977C11.7048 11.526 11.5762 11.4902 11.4199 11.4902C11.2669 11.4902 11.14 11.526 11.0391 11.5977C10.9382 11.6693 10.8617 11.7637 10.8096 11.8809C10.7607 11.998 10.7363 12.1234 10.7363 12.2568ZM11.7129 7.90625L8.24121 13.4629L7.64062 13.1162L11.1123 7.55957L11.7129 7.90625Z" fill="#292929"/>
</svg>
