<svg width="24" height="24" viewBox="0 0 24 24" fill="none" xmlns="http://www.w3.org/2000/svg">
<path d="M21.8766 18.9899L22.6034 19.1749H22.6034L21.8766 18.9899ZM9.87657 18.9899L10.6034 19.1749L9.87657 18.9899ZM21.1498 18.8048C20.7918 20.2109 19.5163 21.25 18 21.25V22.75C20.2187 22.75 22.0803 21.2296 22.6034 19.1749L21.1498 18.8048ZM9.14976 18.8048C8.7918 20.2109 7.51631 21.25 6 21.25V22.75C8.21866 22.75 10.0803 21.2296 10.6034 19.1749L9.14976 18.8048ZM1.25 18C1.25 20.6234 3.37665 22.75 6 22.75V21.25C4.20507 21.25 2.75 19.7949 2.75 18H1.25ZM18 21.25H6V22.75H18V21.25ZM2.75 18V5H1.25V18H2.75ZM5 2.75H15V1.25H5V2.75ZM11 18.75H18V17.25H11V18.75ZM18 18.75H21V17.25H18V18.75ZM17.25 5V18H18.75V5H17.25ZM15 2.75C16.2426 2.75 17.25 3.75736 17.25 5H18.75C18.75 2.92893 17.0711 1.25 15 1.25V2.75ZM10.6034 19.1749C10.6384 19.0376 10.7105 18.92 10.7921 18.8443C10.8697 18.7724 10.9403 18.75 11 18.75V17.25C10.0011 17.25 9.34202 18.0496 9.14976 18.8048L10.6034 19.1749ZM2.75 5C2.75 3.75736 3.75736 2.75 5 2.75V1.25C2.92893 1.25 1.25 2.92893 1.25 5H2.75ZM22.6034 19.1749C22.8937 18.0344 21.8968 17.25 21 17.25V18.75C21.0741 18.75 21.1255 18.7815 21.1461 18.8037C21.1547 18.8131 21.1537 18.8158 21.152 18.8096C21.1496 18.8011 21.1517 18.7971 21.1498 18.8048L22.6034 19.1749Z" fill="#292929"/>
<path d="M6.46875 8.63379V8.25781C6.46875 7.98763 6.52734 7.74186 6.64453 7.52051C6.76172 7.29915 6.93424 7.12174 7.16211 6.98828C7.38997 6.85482 7.66992 6.78809 8.00195 6.78809C8.34375 6.78809 8.62858 6.85482 8.85645 6.98828C9.08757 7.12174 9.26009 7.29915 9.37402 7.52051C9.49121 7.74186 9.5498 7.98763 9.5498 8.25781V8.63379C9.5498 8.89746 9.49121 9.13997 9.37402 9.36133C9.26009 9.58268 9.08919 9.76009 8.86133 9.89355C8.63346 10.027 8.35189 10.0938 8.0166 10.0938C7.67806 10.0938 7.39323 10.027 7.16211 9.89355C6.93424 9.76009 6.76172 9.58268 6.64453 9.36133C6.52734 9.13997 6.46875 8.89746 6.46875 8.63379ZM7.40137 8.25781V8.63379C7.40137 8.74772 7.42253 8.85677 7.46484 8.96094C7.51042 9.06185 7.57878 9.14486 7.66992 9.20996C7.76432 9.27181 7.87826 9.30273 8.01172 9.30273C8.15169 9.30273 8.26562 9.27181 8.35352 9.20996C8.44141 9.14486 8.50651 9.06185 8.54883 8.96094C8.59115 8.85677 8.6123 8.74772 8.6123 8.63379V8.25781C8.6123 8.13737 8.58952 8.02669 8.54395 7.92578C8.50163 7.82161 8.4349 7.73861 8.34375 7.67676C8.25586 7.61165 8.14193 7.5791 8.00195 7.5791C7.87174 7.5791 7.76107 7.61165 7.66992 7.67676C7.57878 7.73861 7.51042 7.82161 7.46484 7.92578C7.42253 8.02669 7.40137 8.13737 7.40137 8.25781ZM9.86719 12.6328V12.2568C9.86719 11.9899 9.92578 11.7458 10.043 11.5244C10.1634 11.3031 10.3376 11.1257 10.5654 10.9922C10.7965 10.8587 11.0798 10.792 11.415 10.792C11.7536 10.792 12.0368 10.8587 12.2646 10.9922C12.4925 11.1257 12.665 11.3031 12.7822 11.5244C12.8994 11.7458 12.958 11.9899 12.958 12.2568V12.6328C12.958 12.8997 12.8994 13.1439 12.7822 13.3652C12.6683 13.5866 12.4974 13.764 12.2695 13.8975C12.0417 14.0309 11.7601 14.0977 11.4248 14.0977C11.0863 14.0977 10.8014 14.0309 10.5703 13.8975C10.3392 13.764 10.1634 13.5866 10.043 13.3652C9.92578 13.1439 9.86719 12.8997 9.86719 12.6328ZM10.8047 12.2568V12.6328C10.8047 12.75 10.8307 12.8607 10.8828 12.9648C10.9349 13.069 11.0065 13.152 11.0977 13.2139C11.1921 13.2757 11.3011 13.3066 11.4248 13.3066C11.5811 13.3066 11.7031 13.2757 11.791 13.2139C11.8789 13.152 11.9391 13.069 11.9717 12.9648C12.0075 12.8607 12.0254 12.75 12.0254 12.6328V12.2568C12.0254 12.1396 12.0026 12.0306 11.957 11.9297C11.9115 11.8255 11.8431 11.7425 11.752 11.6807C11.6641 11.6156 11.5518 11.583 11.415 11.583C11.2783 11.583 11.1644 11.6156 11.0732 11.6807C10.9854 11.7425 10.9186 11.8255 10.873 11.9297C10.8275 12.0306 10.8047 12.1396 10.8047 12.2568ZM11.7617 7.90625L8.29004 13.4629L7.60645 13.1016L11.0781 7.54492L11.7617 7.90625Z" fill="#292929"/>
</svg>
