<svg width="24" height="24" viewBox="0 0 24 24" fill="none" xmlns="http://www.w3.org/2000/svg">
<path d="M3 6.5C2.72386 6.5 2.5 6.72386 2.5 7C2.5 7.27614 2.72386 7.5 3 7.5V6.5ZM3 16.5C2.72386 16.5 2.5 16.7239 2.5 17C2.5 17.2761 2.72386 17.5 3 17.5V16.5ZM9 17.5C9.27614 17.5 9.5 17.2761 9.5 17C9.5 16.7239 9.27614 16.5 9 16.5V17.5ZM21 17.5C21.2761 17.5 21.5 17.2761 21.5 17C21.5 16.7239 21.2761 16.5 21 16.5V17.5ZM15 6.5C14.7239 6.5 14.5 6.72386 14.5 7C14.5 7.27614 14.7239 7.5 15 7.5V6.5ZM21 7.5C21.2761 7.5 21.5 7.27614 21.5 7C21.5 6.72386 21.2761 6.5 21 6.5V7.5ZM3 7.5H6V6.5H3V7.5ZM3 17.5H9V16.5H3V17.5ZM18 17.5H21V16.5H18V17.5ZM15 7.5H21V6.5H15V7.5ZM17.5 17C17.5 18.3807 16.3807 19.5 15 19.5V20.5C16.933 20.5 18.5 18.933 18.5 17H17.5ZM15 19.5C13.6193 19.5 12.5 18.3807 12.5 17H11.5C11.5 18.933 13.067 20.5 15 20.5V19.5ZM12.5 17C12.5 15.6193 13.6193 14.5 15 14.5V13.5C13.067 13.5 11.5 15.067 11.5 17H12.5ZM15 14.5C16.3807 14.5 17.5 15.6193 17.5 17H18.5C18.5 15.067 16.933 13.5 15 13.5V14.5ZM11.5 7C11.5 8.38071 10.3807 9.5 9 9.5V10.5C10.933 10.5 12.5 8.933 12.5 7H11.5ZM9 9.5C7.61929 9.5 6.5 8.38071 6.5 7H5.5C5.5 8.933 7.067 10.5 9 10.5V9.5ZM6.5 7C6.5 5.61929 7.61929 4.5 9 4.5V3.5C7.067 3.5 5.5 5.067 5.5 7H6.5ZM9 4.5C10.3807 4.5 11.5 5.61929 11.5 7H12.5C12.5 5.067 10.933 3.5 9 3.5V4.5Z" fill="#292929"/>
</svg>
