<svg width="24" height="24" viewBox="0 0 24 24" fill="none" xmlns="http://www.w3.org/2000/svg">
<path d="M20.6306 5.34564L21.0278 5.64937C21.0338 5.64151 21.0396 5.63346 21.0451 5.62526L20.6306 5.34564ZM14.9089 12.8274L14.5118 12.5237C14.5057 12.5316 14.5 12.5396 14.4944 12.5478L14.9089 12.8274ZM13.8586 19.5307L14.2101 19.8864L13.8586 19.5307ZM11.6811 21.6827L11.3296 21.3271L11.6811 21.6827ZM9.09107 12.8274L9.50557 12.5478C9.50004 12.5396 9.49426 12.5316 9.48824 12.5237L9.09107 12.8274ZM3.36937 5.34564L2.95487 5.62525C2.96041 5.63346 2.96619 5.64151 2.9722 5.64937L3.36937 5.34564ZM5.18117 2.5H18.8188V1.5H5.18117V2.5ZM20.2335 5.0419L14.5118 12.5237L15.3061 13.1312L21.0278 5.64937L20.2335 5.0419ZM13.6775 15.2148V18.7699H14.6775V15.2148H13.6775ZM13.5072 19.1751L11.3296 21.3271L12.0326 22.0383L14.2101 19.8864L13.5072 19.1751ZM10.3225 20.9219V15.2148H9.32249V20.9219H10.3225ZM9.48824 12.5237L3.76654 5.0419L2.9722 5.64937L8.6939 13.1312L9.48824 12.5237ZM10.3225 15.2148C10.3225 14.2651 10.038 13.3371 9.50557 12.5478L8.67656 13.1071C9.09798 13.7318 9.32249 14.4652 9.32249 15.2148H10.3225ZM11.3296 21.3271C10.9508 21.7014 10.3225 21.4242 10.3225 20.9219H9.32249C9.32249 22.3368 11.0396 23.0196 12.0326 22.0383L11.3296 21.3271ZM13.6775 18.7699C13.6775 18.9208 13.6169 19.0666 13.5072 19.1751L14.2101 19.8864C14.5087 19.5913 14.6775 19.1898 14.6775 18.7699H13.6775ZM14.4944 12.5478C13.962 13.3371 13.6775 14.2651 13.6775 15.2148H14.6775C14.6775 14.4652 14.902 13.7318 15.3234 13.1071L14.4944 12.5478ZM18.8188 2.5C20.1683 2.5 20.9507 3.97702 20.2161 5.06602L21.0451 5.62526C22.2399 3.85408 20.9477 1.5 18.8188 1.5V2.5ZM5.18117 1.5C3.05232 1.5 1.76006 3.85408 2.95487 5.62525L3.78388 5.06602C3.04925 3.97702 3.83169 2.5 5.18117 2.5V1.5Z" fill="#292929"/>
</svg>
