<svg width="24" height="24" viewBox="0 0 24 24" fill="none" xmlns="http://www.w3.org/2000/svg">
<path d="M21.5 12C21.5 17.2467 17.2467 21.5 12 21.5V22.5C17.799 22.5 22.5 17.799 22.5 12H21.5ZM12 21.5C6.75329 21.5 2.5 17.2467 2.5 12H1.5C1.5 17.799 6.20101 22.5 12 22.5V21.5ZM2.5 12C2.5 6.75329 6.75329 2.5 12 2.5V1.5C6.20101 1.5 1.5 6.20101 1.5 12H2.5ZM12 2.5C17.2467 2.5 21.5 6.75329 21.5 12H22.5C22.5 6.20101 17.799 1.5 12 1.5V2.5ZM15.5 12C15.5 14.7141 15.059 17.1482 14.3642 18.8854C14.0162 19.7553 13.6144 20.4258 13.1937 20.8706C12.7741 21.3143 12.3705 21.5 12 21.5V22.5C12.7341 22.5 13.3828 22.126 13.9203 21.5577C14.4567 20.9904 14.9168 20.1964 15.2927 19.2568C16.0455 17.3746 16.5 14.8088 16.5 12H15.5ZM12 21.5C11.6295 21.5 11.2259 21.3143 10.8063 20.8706C10.3856 20.4258 9.98379 19.7553 9.63581 18.8854C8.94095 17.1482 8.5 14.7141 8.5 12H7.5C7.5 14.8088 7.95448 17.3746 8.70733 19.2568C9.08321 20.1964 9.54328 20.9904 10.0797 21.5577C10.6172 22.126 11.2659 22.5 12 22.5V21.5ZM8.5 12C8.5 9.2859 8.94095 6.85177 9.63581 5.11463C9.98379 4.24467 10.3856 3.5742 10.8063 3.1294C11.2259 2.68566 11.6295 2.5 12 2.5V1.5C11.2659 1.5 10.6172 1.87398 10.0797 2.4423C9.54328 3.00955 9.08321 3.80355 8.70733 4.74324C7.95448 6.62538 7.5 9.19125 7.5 12H8.5ZM12 2.5C12.3705 2.5 12.7741 2.68566 13.1937 3.1294C13.6144 3.5742 14.0162 4.24467 14.3642 5.11463C15.059 6.85177 15.5 9.2859 15.5 12H16.5C16.5 9.19125 16.0455 6.62538 15.2927 4.74324C14.9168 3.80355 14.4567 3.00955 13.9203 2.4423C13.3828 1.87398 12.7341 1.5 12 1.5V2.5ZM12 14.5C9.27322 14.5 6.82388 14.1678 5.07261 13.6424C4.19378 13.3788 3.51902 13.0748 3.07512 12.7599C2.61823 12.4358 2.5 12.1718 2.5 12H1.5C1.5 12.6566 1.94142 13.1818 2.49658 13.5756C3.06474 13.9785 3.85444 14.321 4.78526 14.6002C6.65327 15.1606 9.20394 15.5 12 15.5V14.5ZM2.5 12C2.5 11.8282 2.61823 11.5642 3.07512 11.2401C3.51902 10.9252 4.19378 10.6212 5.07261 10.3576C6.82388 9.83221 9.27322 9.5 12 9.5V8.5C9.20394 8.5 6.65327 8.83936 4.78526 9.39977C3.85444 9.67901 3.06474 10.0215 2.49658 10.4244C1.94142 10.8182 1.5 11.3434 1.5 12H2.5ZM12 9.5C14.7268 9.5 17.1761 9.83221 18.9274 10.3576C19.8062 10.6212 20.481 10.9252 20.9249 11.2401C21.3818 11.5642 21.5 11.8282 21.5 12H22.5C22.5 11.3434 22.0586 10.8182 21.5034 10.4244C20.9353 10.0215 20.1456 9.67901 19.2147 9.39977C17.3467 8.83936 14.7961 8.5 12 8.5V9.5ZM21.5 12C21.5 12.1718 21.3818 12.4358 20.9249 12.7599C20.481 13.0748 19.8062 13.3788 18.9274 13.6424C17.1761 14.1678 14.7268 14.5 12 14.5V15.5C14.7961 15.5 17.3467 15.1606 19.2147 14.6002C20.1456 14.321 20.9353 13.9785 21.5034 13.5756C22.0586 13.1818 22.5 12.6566 22.5 12H21.5Z" fill="#292929"/>
</svg>
