<svg width="24" height="24" viewBox="0 0 24 24" fill="none" xmlns="http://www.w3.org/2000/svg">
<path d="M13.6831 10.0808L14.1036 10.3514L13.6831 10.0808ZM9.5 9C9.5 9.27614 9.72386 9.5 10 9.5C10.2761 9.5 10.5 9.27614 10.5 9H9.5ZM11.5 13.5C11.5 13.7761 11.7239 14 12 14C12.2761 14 12.5 13.7761 12.5 13.5H11.5ZM12.5 16C12.5 15.7239 12.2761 15.5 12 15.5C11.7239 15.5 11.5 15.7239 11.5 16H12.5ZM11.5 17C11.5 17.2761 11.7239 17.5 12 17.5C12.2761 17.5 12.5 17.2761 12.5 17H11.5ZM21.5 12C21.5 17.2467 17.2467 21.5 12 21.5V22.5C17.799 22.5 22.5 17.799 22.5 12H21.5ZM12 21.5C6.75329 21.5 2.5 17.2467 2.5 12H1.5C1.5 17.799 6.20101 22.5 12 22.5V21.5ZM2.5 12C2.5 6.75329 6.75329 2.5 12 2.5V1.5C6.20101 1.5 1.5 6.20101 1.5 12H2.5ZM12 2.5C17.2467 2.5 21.5 6.75329 21.5 12H22.5C22.5 6.20101 17.799 1.5 12 1.5V2.5ZM13.5 9C13.5 9.29936 13.4128 9.57683 13.2626 9.81023L14.1036 10.3514C14.3545 9.96142 14.5 9.49694 14.5 9H13.5ZM10.5 9C10.5 8.17157 11.1716 7.5 12 7.5V6.5C10.6193 6.5 9.5 7.61929 9.5 9H10.5ZM12 7.5C12.8284 7.5 13.5 8.17157 13.5 9H14.5C14.5 7.61929 13.3807 6.5 12 6.5V7.5ZM11.5 13V13.5H12.5V13H11.5ZM13.2626 9.81023C13.1289 10.0181 12.9638 10.2296 12.7784 10.46C12.5983 10.6839 12.3954 10.9298 12.2131 11.1803C11.8521 11.6766 11.5 12.2831 11.5 13H12.5C12.5 12.6124 12.6906 12.2237 13.0217 11.7687C13.1855 11.5436 13.3661 11.3248 13.5575 11.0869C13.7437 10.8555 13.9385 10.6079 14.1036 10.3514L13.2626 9.81023ZM11.5 16V17H12.5V16H11.5Z" fill="#292929"/>
</svg>
