<svg width="24" height="24" viewBox="0 0 24 24" fill="none" xmlns="http://www.w3.org/2000/svg">
<path d="M4.46986 7.02652L4.15203 6.64054L4.46986 7.02652ZM9.46986 2.90935L9.15203 2.52336V2.52336L9.46986 2.90935ZM14.5301 2.90935L14.2123 3.29533L14.5301 2.90935ZM19.5301 7.02652L19.2123 7.41251H19.2123L19.5301 7.02652ZM20.5 10.1503V17.9668H21.5V10.1503H20.5ZM17 21.5H7V22.5H17V21.5ZM3.5 17.9668V10.1503H2.5V17.9668H3.5ZM4.78769 7.41251L9.78769 3.29533L9.15203 2.52336L4.15203 6.64054L4.78769 7.41251ZM14.2123 3.29533L19.2123 7.41251L19.848 6.64054L14.848 2.52336L14.2123 3.29533ZM9.78769 3.29533C11.0755 2.23489 12.9245 2.23489 14.2123 3.29533L14.848 2.52336C13.1909 1.15888 10.8091 1.15888 9.15203 2.52336L9.78769 3.29533ZM7 21.5C5.07089 21.5 3.5 19.9221 3.5 17.9668H2.5C2.5 20.4665 4.51084 22.5 7 22.5V21.5ZM20.5 17.9668C20.5 19.9221 18.9291 21.5 17 21.5V22.5C19.4892 22.5 21.5 20.4665 21.5 17.9668H20.5ZM21.5 10.1503C21.5 8.79081 20.8942 7.50204 19.848 6.64054L19.2123 7.41251C20.0265 8.08296 20.5 9.08793 20.5 10.1503H21.5ZM3.5 10.1503C3.5 9.08793 3.97348 8.08296 4.78769 7.41251L4.15203 6.64054C3.10581 7.50204 2.5 8.79081 2.5 10.1503H3.5Z" fill="#292929"/>
<path d="M10 18H14" stroke="#292929" stroke-width="1.5" stroke-linecap="round"/>
</svg>
