<svg width="24" height="24" viewBox="0 0 24 24" fill="none" xmlns="http://www.w3.org/2000/svg">
<path d="M18 17.5C18.2761 17.5 18.5 17.2761 18.5 17C18.5 16.7239 18.2761 16.5 18 16.5V17.5ZM15 16.5C14.7239 16.5 14.5 16.7239 14.5 17C14.5 17.2761 14.7239 17.5 15 17.5V16.5ZM18 14.5C18.2761 14.5 18.5 14.2761 18.5 14C18.5 13.7239 18.2761 13.5 18 13.5V14.5ZM15 13.5C14.7239 13.5 14.5 13.7239 14.5 14C14.5 14.2761 14.7239 14.5 15 14.5V13.5ZM6 3.5H18V2.5H6V3.5ZM21.5 7V17H22.5V7H21.5ZM18 20.5H6V21.5H18V20.5ZM2.5 17V7H1.5V17H2.5ZM6 20.5C4.067 20.5 2.5 18.933 2.5 17H1.5C1.5 19.4853 3.51472 21.5 6 21.5V20.5ZM21.5 17C21.5 18.933 19.933 20.5 18 20.5V21.5C20.4853 21.5 22.5 19.4853 22.5 17H21.5ZM18 3.5C19.933 3.5 21.5 5.067 21.5 7H22.5C22.5 4.51472 20.4853 2.5 18 2.5V3.5ZM6 2.5C3.51472 2.5 1.5 4.51472 1.5 7H2.5C2.5 5.067 4.067 3.5 6 3.5V2.5ZM18 16.5H15V17.5H18V16.5ZM18 13.5H15V14.5H18V13.5ZM8 7.5H10V6.5H8V7.5ZM10 10.5H8V11.5H10V10.5ZM8 10.5C7.17157 10.5 6.5 9.82843 6.5 9H5.5C5.5 10.3807 6.61929 11.5 8 11.5V10.5ZM11.5 9C11.5 9.82843 10.8284 10.5 10 10.5V11.5C11.3807 11.5 12.5 10.3807 12.5 9H11.5ZM10 7.5C10.8284 7.5 11.5 8.17157 11.5 9H12.5C12.5 7.61929 11.3807 6.5 10 6.5V7.5ZM8 6.5C6.61929 6.5 5.5 7.61929 5.5 9H6.5C6.5 8.17157 7.17157 7.5 8 7.5V6.5Z" fill="#292929"/>
</svg>
