<svg width="24" height="24" viewBox="0 0 24 24" fill="none" xmlns="http://www.w3.org/2000/svg">
<rect x="3" y="8" width="18" height="14" rx="3" stroke="#292929"/>
<circle r="1" transform="matrix(1 0 0 -1 18 19)" fill="#292929"/>
<circle r="1" transform="matrix(1 0 0 -1 6 11)" fill="#292929"/>
<circle r="2" transform="matrix(1 0 0 -1 12 15)" stroke="#292929"/>
<path d="M14.3536 4.26777C14.5488 4.0725 14.5488 3.75592 14.3536 3.56066C14.1583 3.3654 13.8417 3.3654 13.6464 3.56066L14.3536 4.26777ZM12.7071 5.20711L13.0607 5.56066L12.7071 5.20711ZM11.2929 5.20711L11.6464 4.85355L11.6464 4.85355L11.2929 5.20711ZM10.3536 3.56066C10.1583 3.3654 9.84171 3.3654 9.64645 3.56066C9.45118 3.75592 9.45118 4.0725 9.64645 4.26777L10.3536 3.56066ZM12.5 2C12.5 1.72386 12.2761 1.5 12 1.5C11.7239 1.5 11.5 1.72386 11.5 2H12.5ZM11.5 4.91421C11.5 5.19036 11.7239 5.41421 12 5.41421C12.2761 5.41421 12.5 5.19036 12.5 4.91421H11.5ZM13.6464 3.56066L12.3536 4.85355L13.0607 5.56066L14.3536 4.26777L13.6464 3.56066ZM11.6464 4.85355L10.3536 3.56066L9.64645 4.26777L10.9393 5.56066L11.6464 4.85355ZM12.3536 4.85355C12.1583 5.04882 11.8417 5.04882 11.6464 4.85355L10.9393 5.56066C11.5251 6.14645 12.4749 6.14645 13.0607 5.56066L12.3536 4.85355ZM11.5 2V4.91421H12.5V2H11.5Z" fill="#292929"/>
</svg>
