<svg width="24" height="24" viewBox="0 0 24 24" fill="none" xmlns="http://www.w3.org/2000/svg">
<circle cx="12" cy="7" r="1" fill="#292929"/>
<path d="M11 9.5C10.7239 9.5 10.5 9.72386 10.5 10C10.5 10.2761 10.7239 10.5 11 10.5V9.5ZM12 10H12.5C12.5 9.72386 12.2761 9.5 12 9.5V10ZM11.5 17C11.5 17.2761 11.7239 17.5 12 17.5C12.2761 17.5 12.5 17.2761 12.5 17H11.5ZM21.5 12C21.5 17.2467 17.2467 21.5 12 21.5V22.5C17.799 22.5 22.5 17.799 22.5 12H21.5ZM12 21.5C6.75329 21.5 2.5 17.2467 2.5 12H1.5C1.5 17.799 6.20101 22.5 12 22.5V21.5ZM2.5 12C2.5 6.75329 6.75329 2.5 12 2.5V1.5C6.20101 1.5 1.5 6.20101 1.5 12H2.5ZM12 2.5C17.2467 2.5 21.5 6.75329 21.5 12H22.5C22.5 6.20101 17.799 1.5 12 1.5V2.5ZM11 10.5H12V9.5H11V10.5ZM11.5 10V17H12.5V10H11.5Z" fill="#292929"/>
</svg>
