<svg width="24" height="24" viewBox="0 0 24 24" fill="none" xmlns="http://www.w3.org/2000/svg">
<path d="M18.8905 7.66428L19.1682 7.24851L18.8905 7.66428ZM13.1095 16.3357L12.8318 16.7515L13.1095 16.3357ZM10.3999 16.7999L10.7997 17.1002L10.3999 16.7999ZM5.60009 13.2001L5.20032 12.8998L5.60009 13.2001ZM4 13.5C3.17157 13.5 2.5 12.8284 2.5 12H1.5C1.5 13.3807 2.61929 14.5 4 14.5V13.5ZM2.5 12C2.5 11.1716 3.17157 10.5 4 10.5V9.5C2.61929 9.5 1.5 10.6193 1.5 12H2.5ZM4 10.5C4.82843 10.5 5.5 11.1716 5.5 12H6.5C6.5 10.6193 5.38071 9.5 4 9.5V10.5ZM13.5 18C13.5 18.8284 12.8284 19.5 12 19.5V20.5C13.3807 20.5 14.5 19.3807 14.5 18H13.5ZM12 19.5C11.1716 19.5 10.5 18.8284 10.5 18H9.5C9.5 19.3807 10.6193 20.5 12 20.5V19.5ZM21.5 6C21.5 6.82843 20.8284 7.5 20 7.5V8.5C21.3807 8.5 22.5 7.38071 22.5 6H21.5ZM18.5 6C18.5 5.17157 19.1716 4.5 20 4.5V3.5C18.6193 3.5 17.5 4.61929 17.5 6H18.5ZM20 4.5C20.8284 4.5 21.5 5.17157 21.5 6H22.5C22.5 4.61929 21.3807 3.5 20 3.5V4.5ZM20 7.5C19.6914 7.5 19.406 7.40738 19.1682 7.24851L18.6127 8.08005C19.0099 8.34533 19.4876 8.5 20 8.5V7.5ZM19.1682 7.24851C18.7643 6.97869 18.5 6.52011 18.5 6H17.5C17.5 6.86812 17.9429 7.63259 18.6127 8.08005L19.1682 7.24851ZM13.5255 16.6131L19.3065 7.94163L18.4745 7.38693L12.6935 16.0584L13.5255 16.6131ZM12 16.5C12.3086 16.5 12.594 16.5926 12.8318 16.7515L13.3872 15.92C12.9901 15.6547 12.5124 15.5 12 15.5V16.5ZM12.8318 16.7515C13.2357 17.0213 13.5 17.4799 13.5 18H14.5C14.5 17.1319 14.0571 16.3674 13.3872 15.92L12.8318 16.7515ZM10.5 18C10.5 17.6617 10.6114 17.3509 10.7997 17.1002L10.0001 16.4996C9.68622 16.9175 9.5 17.4377 9.5 18H10.5ZM10.7997 17.1002C11.0742 16.7348 11.5096 16.5 12 16.5V15.5C11.1818 15.5 10.4554 15.8936 10.0001 16.4996L10.7997 17.1002ZM10.6999 16.3999L5.90009 12.8001L5.30009 13.6001L10.0999 17.1999L10.6999 16.3999ZM5.5 12C5.5 12.3383 5.38862 12.6491 5.20032 12.8998L5.99986 13.5004C6.31378 13.0825 6.5 12.5623 6.5 12H5.5ZM5.20032 12.8998C4.92581 13.2652 4.4904 13.5 4 13.5V14.5C4.81819 14.5 5.5446 14.1064 5.99986 13.5004L5.20032 12.8998Z" fill="#292929"/>
</svg>
