<svg width="24" height="24" viewBox="0 0 24 24" fill="none" xmlns="http://www.w3.org/2000/svg">
<circle cx="4" cy="4" r="2" stroke="#292929"/>
<path d="M2 8.5H6V22H2V8.5Z" stroke="#292929" stroke-linejoin="round"/>
<path d="M9 8.5V8C8.72386 8 8.5 8.22386 8.5 8.5H9ZM13 8.5H13.5C13.5 8.22386 13.2761 8 13 8V8.5ZM13 22V22.5C13.2761 22.5 13.5 22.2761 13.5 22H13ZM9 22H8.5C8.5 22.2761 8.72386 22.5 9 22.5V22ZM21 22V22.5C21.2761 22.5 21.5 22.2761 21.5 22H21ZM17 22H16.5C16.5 22.2761 16.7239 22.5 17 22.5V22ZM13 9.34141H12.5C12.5 9.50372 12.5788 9.65593 12.7113 9.74965C12.8438 9.84336 13.0136 9.86692 13.1666 9.81283L13 9.34141ZM9 9H13V8H9V9ZM13 21.5H9V22.5H13V21.5ZM9.5 22V8.5H8.5V22H9.5ZM9.5 22V15H8.5V22H9.5ZM20.5 15V22H21.5V15H20.5ZM21 21.5H17V22.5H21V21.5ZM12.5 15V22H13.5V15H12.5ZM16.5 15V22H17.5V15H16.5ZM15 13.5C15.8284 13.5 16.5 14.1716 16.5 15H17.5C17.5 13.6193 16.3807 12.5 15 12.5V13.5ZM15 12.5C13.6193 12.5 12.5 13.6193 12.5 15H13.5C13.5 14.1716 14.1716 13.5 15 13.5V12.5ZM21.5 15C21.5 11.4102 18.5899 8.5 15 8.5V9.5C18.0376 9.5 20.5 11.9624 20.5 15H21.5ZM13.1666 9.81283C13.7394 9.61038 14.3563 9.5 15 9.5V8.5C14.2412 8.5 13.5117 8.63024 12.8334 8.86999L13.1666 9.81283ZM12.5 8.5V9.34141H13.5V8.5H12.5Z" fill="#292929"/>
</svg>
