<svg width="24" height="24" viewBox="0 0 24 24" fill="none" xmlns="http://www.w3.org/2000/svg">
<path d="M15.3536 10.3536C15.5488 10.1583 15.5488 9.84171 15.3536 9.64645C15.1583 9.45118 14.8417 9.45118 14.6464 9.64645L15.3536 10.3536ZM13.7071 11.2929L14.0607 11.6464H14.0607L13.7071 11.2929ZM13.7071 12.7071L14.0607 12.3536L13.7071 12.7071ZM14.6464 14.3536C14.8417 14.5488 15.1583 14.5488 15.3536 14.3536C15.5488 14.1583 15.5488 13.8417 15.3536 13.6464L14.6464 14.3536ZM14 11.5C13.7239 11.5 13.5 11.7239 13.5 12C13.5 12.2761 13.7239 12.5 14 12.5V11.5ZM22 12.5C22.2761 12.5 22.5 12.2761 22.5 12C22.5 11.7239 22.2761 11.5 22 11.5V12.5ZM18.5 16C18.5 15.7239 18.2761 15.5 18 15.5C17.7239 15.5 17.5 15.7239 17.5 16H18.5ZM17.5 8C17.5 8.27614 17.7239 8.5 18 8.5C18.2761 8.5 18.5 8.27614 18.5 8H17.5ZM14.6464 9.64645L13.3536 10.9393L14.0607 11.6464L15.3536 10.3536L14.6464 9.64645ZM13.3536 13.0607L14.6464 14.3536L15.3536 13.6464L14.0607 12.3536L13.3536 13.0607ZM13.3536 10.9393C12.7678 11.5251 12.7678 12.4749 13.3536 13.0607L14.0607 12.3536C13.8654 12.1583 13.8654 11.8417 14.0607 11.6464L13.3536 10.9393ZM14 12.5H22V11.5L14 11.5V12.5ZM9.5 8V16H10.5V8H9.5ZM2.5 16V8H1.5V16H2.5ZM6 19.5C4.067 19.5 2.5 17.933 2.5 16H1.5C1.5 18.4853 3.51472 20.5 6 20.5V19.5ZM9.5 16C9.5 17.933 7.933 19.5 6 19.5V20.5C8.48528 20.5 10.5 18.4853 10.5 16H9.5ZM6 4.5C7.933 4.5 9.5 6.067 9.5 8H10.5C10.5 5.51472 8.48528 3.5 6 3.5V4.5ZM6 3.5C3.51472 3.5 1.5 5.51472 1.5 8H2.5C2.5 6.067 4.067 4.5 6 4.5V3.5ZM6 4.5H14V3.5H6V4.5ZM14 19.5H6V20.5H14V19.5ZM17.5 16C17.5 17.933 15.933 19.5 14 19.5V20.5C16.4853 20.5 18.5 18.4853 18.5 16H17.5ZM14 4.5C15.933 4.5 17.5 6.067 17.5 8H18.5C18.5 5.51472 16.4853 3.5 14 3.5V4.5Z" fill="#292929"/>
</svg>
