<svg width="24" height="24" viewBox="0 0 24 24" fill="none" xmlns="http://www.w3.org/2000/svg">
<path d="M19.4697 13.4697C19.1768 13.7626 19.1768 14.2374 19.4697 14.5303C19.7626 14.8232 20.2374 14.8232 20.5303 14.5303L19.4697 13.4697ZM20.5303 9.46967C20.2374 9.17678 19.7626 9.17678 19.4697 9.46967C19.1768 9.76256 19.1768 10.2374 19.4697 10.5303L20.5303 9.46967ZM20.5303 14.5303L21.8232 13.2374L20.7626 12.1768L19.4697 13.4697L20.5303 14.5303ZM21.8232 10.7626L20.5303 9.46967L19.4697 10.5303L20.7626 11.8232L21.8232 10.7626ZM21.8232 13.2374C22.5066 12.554 22.5066 11.446 21.8232 10.7626L20.7626 11.8232C20.8602 11.9209 20.8602 12.0791 20.7626 12.1768L21.8232 13.2374Z" fill="#292929"/>
<path d="M21 12.5C21.2761 12.5 21.5 12.2761 21.5 12C21.5 11.7239 21.2761 11.5 21 11.5V12.5ZM13 11.5C12.7239 11.5 12.5 11.7239 12.5 12C12.5 12.2761 12.7239 12.5 13 12.5V11.5ZM18.5 16C18.5 15.7239 18.2761 15.5 18 15.5C17.7239 15.5 17.5 15.7239 17.5 16H18.5ZM17.5 8C17.5 8.27614 17.7239 8.5 18 8.5C18.2761 8.5 18.5 8.27614 18.5 8H17.5ZM21 11.5H13V12.5H21V11.5ZM9.5 8V16H10.5V8H9.5ZM2.5 16V8H1.5V16H2.5ZM6 19.5C4.067 19.5 2.5 17.933 2.5 16H1.5C1.5 18.4853 3.51472 20.5 6 20.5V19.5ZM9.5 16C9.5 17.933 7.933 19.5 6 19.5V20.5C8.48528 20.5 10.5 18.4853 10.5 16H9.5ZM6 4.5C7.933 4.5 9.5 6.067 9.5 8H10.5C10.5 5.51472 8.48528 3.5 6 3.5V4.5ZM6 3.5C3.51472 3.5 1.5 5.51472 1.5 8H2.5C2.5 6.067 4.067 4.5 6 4.5V3.5ZM6 4.5H14V3.5H6V4.5ZM14 19.5H6V20.5H14V19.5ZM17.5 16C17.5 17.933 15.933 19.5 14 19.5V20.5C16.4853 20.5 18.5 18.4853 18.5 16H17.5ZM14 4.5C15.933 4.5 17.5 6.067 17.5 8H18.5C18.5 5.51472 16.4853 3.5 14 3.5V4.5Z" fill="#292929"/>
</svg>
