<svg width="24" height="24" viewBox="0 0 24 24" fill="none" xmlns="http://www.w3.org/2000/svg">
<path d="M19 17.5C19.2761 17.5 19.5 17.2761 19.5 17C19.5 16.7239 19.2761 16.5 19 16.5V17.5ZM17 16.5C16.7239 16.5 16.5 16.7239 16.5 17C16.5 17.2761 16.7239 17.5 17 17.5V16.5ZM19 7.5C19.2761 7.5 19.5 7.27614 19.5 7C19.5 6.72386 19.2761 6.5 19 6.5V7.5ZM17 6.5C16.7239 6.5 16.5 6.72386 16.5 7C16.5 7.27614 16.7239 7.5 17 7.5V6.5ZM7 7.5C7.27614 7.5 7.5 7.27614 7.5 7C7.5 6.72386 7.27614 6.5 7 6.5V7.5ZM5 6.5C4.72386 6.5 4.5 6.72386 4.5 7C4.5 7.27614 4.72386 7.5 5 7.5V6.5ZM7 17.5C7.27614 17.5 7.5 17.2761 7.5 17C7.5 16.7239 7.27614 16.5 7 16.5V17.5ZM5 16.5C4.72386 16.5 4.5 16.7239 4.5 17C4.5 17.2761 4.72386 17.5 5 17.5V16.5ZM6 4.5H18V3.5H6V4.5ZM21.5 8V16H22.5V8H21.5ZM18 19.5H6V20.5H18V19.5ZM2.5 16V8H1.5V16H2.5ZM6 19.5C4.067 19.5 2.5 17.933 2.5 16H1.5C1.5 18.4853 3.51472 20.5 6 20.5V19.5ZM21.5 16C21.5 17.933 19.933 19.5 18 19.5V20.5C20.4853 20.5 22.5 18.4853 22.5 16H21.5ZM18 4.5C19.933 4.5 21.5 6.067 21.5 8H22.5C22.5 5.51472 20.4853 3.5 18 3.5V4.5ZM6 3.5C3.51472 3.5 1.5 5.51472 1.5 8H2.5C2.5 6.067 4.067 4.5 6 4.5V3.5ZM13.5 12C13.5 12.8284 12.8284 13.5 12 13.5V14.5C13.3807 14.5 14.5 13.3807 14.5 12H13.5ZM12 13.5C11.1716 13.5 10.5 12.8284 10.5 12H9.5C9.5 13.3807 10.6193 14.5 12 14.5V13.5ZM10.5 12C10.5 11.1716 11.1716 10.5 12 10.5V9.5C10.6193 9.5 9.5 10.6193 9.5 12H10.5ZM12 10.5C12.8284 10.5 13.5 11.1716 13.5 12H14.5C14.5 10.6193 13.3807 9.5 12 9.5V10.5ZM19 16.5H17V17.5H19V16.5ZM19 6.5H17V7.5H19V6.5ZM7 6.5H5V7.5H7V6.5ZM7 16.5H5V17.5H7V16.5Z" fill="#292929"/>
</svg>
