<svg width="24" height="24" viewBox="0 0 24 24" fill="none" xmlns="http://www.w3.org/2000/svg">
<path d="M14.4746 3L14.6196 2.5215C14.4431 2.46799 14.2515 2.51602 14.121 2.64645C13.9906 2.77687 13.9426 2.96851 13.9961 3.14503L14.4746 3ZM3 14.4746L3.14503 13.9961C2.96851 13.9426 2.77687 13.9906 2.64645 14.121C2.51602 14.2515 2.46799 14.4431 2.5215 14.6196L3 14.4746ZM14.3687 5.67163C14.3687 10.4749 10.4749 14.3687 5.67163 14.3687V15.3687C11.0271 15.3687 15.3687 11.0271 15.3687 5.67163H14.3687ZM20.5 11.803C20.5 16.6062 16.6062 20.5 11.803 20.5V21.5C17.1585 21.5 21.5 17.1585 21.5 11.803H20.5ZM14.3296 3.4785C17.9011 4.561 20.5 7.87914 20.5 11.803H21.5C21.5 7.42639 18.601 3.72821 14.6196 2.5215L14.3296 3.4785ZM13.9961 3.14503C14.2383 3.944 14.3687 4.79214 14.3687 5.67163H15.3687C15.3687 4.69279 15.2235 3.74696 14.9531 2.85497L13.9961 3.14503ZM11.803 20.5C7.87914 20.5 4.561 17.9011 3.4785 14.3296L2.5215 14.6196C3.72821 18.601 7.42639 21.5 11.803 21.5V20.5ZM5.67163 14.3687C4.79214 14.3687 3.944 14.2383 3.14503 13.9961L2.85497 14.9531C3.74696 15.2235 4.69279 15.3687 5.67163 15.3687V14.3687Z" fill="#292929"/>
</svg>
