<svg width="24" height="24" viewBox="0 0 24 24" fill="none" xmlns="http://www.w3.org/2000/svg">
<path d="M12 13.5C11.1716 13.5 10.5 12.8284 10.5 12H9.5C9.5 13.3807 10.6193 14.5 12 14.5V13.5ZM10.5 12C10.5 11.1716 11.1716 10.5 12 10.5V9.5C10.6193 9.5 9.5 10.6193 9.5 12H10.5ZM12 10.5C12.8284 10.5 13.5 11.1716 13.5 12H14.5C14.5 10.6193 13.3807 9.5 12 9.5V10.5ZM13.5 12C13.5 12.8284 12.8284 13.5 12 13.5V14.5C13.3807 14.5 14.5 13.3807 14.5 12H13.5ZM20 13.5C19.1716 13.5 18.5 12.8284 18.5 12H17.5C17.5 13.3807 18.6193 14.5 20 14.5V13.5ZM18.5 12C18.5 11.1716 19.1716 10.5 20 10.5V9.5C18.6193 9.5 17.5 10.6193 17.5 12H18.5ZM20 10.5C20.8284 10.5 21.5 11.1716 21.5 12H22.5C22.5 10.6193 21.3807 9.5 20 9.5V10.5ZM21.5 12C21.5 12.8284 20.8284 13.5 20 13.5V14.5C21.3807 14.5 22.5 13.3807 22.5 12H21.5ZM4 13.5C3.17157 13.5 2.5 12.8284 2.5 12H1.5C1.5 13.3807 2.61929 14.5 4 14.5V13.5ZM2.5 12C2.5 11.1716 3.17157 10.5 4 10.5V9.5C2.61929 9.5 1.5 10.6193 1.5 12H2.5ZM4 10.5C4.82843 10.5 5.5 11.1716 5.5 12H6.5C6.5 10.6193 5.38071 9.5 4 9.5V10.5ZM5.5 12C5.5 12.8284 4.82843 13.5 4 13.5V14.5C5.38071 14.5 6.5 13.3807 6.5 12H5.5Z" fill="#292929"/>
</svg>
