<svg width="24" height="24" viewBox="0 0 24 24" fill="none" xmlns="http://www.w3.org/2000/svg">
<path d="M3.35355 2.64645C3.15829 2.45118 2.84171 2.45118 2.64645 2.64645C2.45118 2.84171 2.45118 3.15829 2.64645 3.35355L3.35355 2.64645ZM20.6464 21.3536C20.8417 21.5488 21.1583 21.5488 21.3536 21.3536C21.5488 21.1583 21.5488 20.8417 21.3536 20.6464L20.6464 21.3536ZM18.3204 8.79403L17.8235 8.85032V8.85032L18.3204 8.79403ZM18.6652 11.8385L19.1621 11.7822L18.6652 11.8385ZM5.33476 11.8385L4.83794 11.7822L5.33476 11.8385ZM5.67964 8.79403L6.17646 8.85032L5.67964 8.79403ZM4.45549 13.88L4.83654 14.2038L4.45549 13.88ZM19.5445 13.88L19.9256 13.5563L19.5445 13.88ZM19.3897 15.6616C19.2845 15.917 19.4063 16.2092 19.6616 16.3143C19.917 16.4195 20.2092 16.2977 20.3144 16.0424L19.3897 15.6616ZM7.95492 3.85507C7.73404 4.02081 7.68934 4.33422 7.85507 4.5551C8.02081 4.77597 8.33422 4.82067 8.5551 4.65494L7.95492 3.85507ZM6.81364 6.72771C6.9394 6.48187 6.84206 6.18063 6.59622 6.05486C6.35037 5.9291 6.04913 6.02644 5.92337 6.27229L6.81364 6.72771ZM17 17.5C17.2761 17.5 17.5 17.2761 17.5 17C17.5 16.7239 17.2761 16.5 17 16.5V17.5ZM15.4682 19.1755C15.5651 18.9169 15.434 18.6287 15.1755 18.5318C14.9169 18.4349 14.6287 18.566 14.5318 18.8245L15.4682 19.1755ZM9.4682 18.8245C9.37129 18.566 9.08311 18.4349 8.82453 18.5318C8.56595 18.6287 8.43489 18.9169 8.5318 19.1755L9.4682 18.8245ZM2.64645 3.35355L20.6464 21.3536L21.3536 20.6464L3.35355 2.64645L2.64645 3.35355ZM17.8235 8.85032L18.1684 11.8948L19.1621 11.7822L18.8172 8.73775L17.8235 8.85032ZM5.83158 11.8948L6.17646 8.85032L5.18281 8.73775L4.83794 11.7822L5.83158 11.8948ZM4.83654 14.2038C5.38864 13.554 5.73485 12.7486 5.83158 11.8948L4.83794 11.7822C4.76327 12.4413 4.49629 13.0598 4.07445 13.5563L4.83654 14.2038ZM18.1684 11.8948C18.2651 12.7486 18.6114 13.554 19.1635 14.2038L19.9256 13.5563C19.5037 13.0598 19.2367 12.4413 19.1621 11.7822L18.1684 11.8948ZM5.83014 16.5C4.71583 16.5 4.0602 15.1175 4.83654 14.2038L4.07445 13.5563C2.78397 15.0752 3.80579 17.5 5.83014 17.5V16.5ZM18.8172 8.73775C18.4157 5.19344 15.4949 2.5 12 2.5V3.5C14.9632 3.5 17.4767 5.78827 17.8235 8.85032L18.8172 8.73775ZM20.3144 16.0424C20.6338 15.2667 20.5631 14.3068 19.9256 13.5563L19.1635 14.2038C19.5352 14.6413 19.5809 15.1972 19.3897 15.6616L20.3144 16.0424ZM8.5551 4.65494C9.5275 3.9253 10.7203 3.5 12 3.5V2.5C10.4947 2.5 9.093 3.00111 7.95492 3.85507L8.5551 4.65494ZM6.17646 8.85032C6.26295 8.08684 6.48431 7.37149 6.81364 6.72771L5.92337 6.27229C5.53981 7.02206 5.28299 7.85343 5.18281 8.73775L6.17646 8.85032ZM17 16.5H5.83014V17.5H17V16.5ZM14.5318 18.8245C14.1711 19.787 13.1847 20.5 12 20.5V21.5C13.5853 21.5 14.9555 20.5434 15.4682 19.1755L14.5318 18.8245ZM12 20.5C10.8153 20.5 9.82891 19.787 9.4682 18.8245L8.5318 19.1755C9.04446 20.5434 10.4147 21.5 12 21.5V20.5Z" fill="#292929"/>
</svg>
