<svg width="24" height="24" viewBox="0 0 24 24" fill="none" xmlns="http://www.w3.org/2000/svg">
<path d="M4.45549 13.88L4.07445 13.5563H4.07445L4.45549 13.88ZM5.33476 11.8385L4.83794 11.7822L5.33476 11.8385ZM18.6652 11.8385L19.1621 11.7822L18.6652 11.8385ZM19.5445 13.88L19.9256 13.5563L19.5445 13.88ZM18.3204 8.79403L17.8235 8.85032V8.85032L18.3204 8.79403ZM5.67964 8.79403L6.17646 8.85032L5.67964 8.79403ZM15.4682 19.1755C15.5651 18.9169 15.434 18.6287 15.1755 18.5318C14.9169 18.4349 14.6287 18.566 14.5318 18.8245L15.4682 19.1755ZM9.4682 18.8245C9.37129 18.566 9.08311 18.4349 8.82453 18.5318C8.56595 18.6287 8.43489 18.9169 8.5318 19.1755L9.4682 18.8245ZM18.1699 16.5H5.83014V17.5H18.1699V16.5ZM17.8235 8.85032L18.1684 11.8948L19.1621 11.7822L18.8172 8.73775L17.8235 8.85032ZM5.83158 11.8948L6.17646 8.85032L5.18281 8.73775L4.83794 11.7822L5.83158 11.8948ZM4.83654 14.2038C5.38864 13.554 5.73485 12.7486 5.83158 11.8948L4.83794 11.7822C4.76327 12.4413 4.49629 13.0598 4.07445 13.5563L4.83654 14.2038ZM18.1684 11.8948C18.2651 12.7486 18.6114 13.554 19.1635 14.2038L19.9256 13.5563C19.5037 13.0598 19.2367 12.4413 19.1621 11.7822L18.1684 11.8948ZM5.83014 16.5C4.71583 16.5 4.0602 15.1175 4.83654 14.2038L4.07445 13.5563C2.78397 15.0752 3.80579 17.5 5.83014 17.5V16.5ZM18.1699 17.5C20.1942 17.5 21.216 15.0752 19.9256 13.5563L19.1635 14.2038C19.9398 15.1175 19.2842 16.5 18.1699 16.5V17.5ZM18.8172 8.73775C18.4157 5.19344 15.4949 2.5 12 2.5V3.5C14.9632 3.5 17.4767 5.78827 17.8235 8.85032L18.8172 8.73775ZM6.17646 8.85032C6.52333 5.78827 9.03683 3.5 12 3.5V2.5C8.50506 2.5 5.58432 5.19344 5.18281 8.73775L6.17646 8.85032ZM14.5318 18.8245C14.1711 19.787 13.1847 20.5 12 20.5V21.5C13.5853 21.5 14.9555 20.5434 15.4682 19.1755L14.5318 18.8245ZM12 20.5C10.8153 20.5 9.82891 19.787 9.4682 18.8245L8.5318 19.1755C9.04446 20.5434 10.4147 21.5 12 21.5V20.5Z" fill="#292929"/>
</svg>
