<svg width="24" height="24" viewBox="0 0 24 24" fill="none" xmlns="http://www.w3.org/2000/svg">
<path d="M5.33476 12.8385L4.83794 12.7822L5.33476 12.8385ZM5.67964 9.79403L6.17646 9.85031L5.67964 9.79403ZM4.45549 14.88L4.07445 14.5563L4.45549 14.88ZM18.6652 12.8385L19.1621 12.7822L18.6652 12.8385ZM19.5445 14.88L19.1635 15.2038L19.5445 14.88ZM11.1464 4.56389C11.4194 4.52266 11.6073 4.2679 11.5661 3.99485C11.5249 3.7218 11.2701 3.53387 10.9971 3.57509L11.1464 4.56389ZM18.9342 10.7705C18.9031 10.4961 18.6555 10.2988 18.3811 10.3299C18.1067 10.361 17.9094 10.6086 17.9405 10.883L18.9342 10.7705ZM15.4682 20.1755C15.5651 19.9169 15.434 19.6287 15.1755 19.5318C14.9169 19.4349 14.6287 19.566 14.5318 19.8245L15.4682 20.1755ZM9.4682 19.8245C9.37129 19.566 9.08311 19.4349 8.82453 19.5318C8.56595 19.6287 8.43489 19.9169 8.5318 20.1755L9.4682 19.8245ZM19.5 5C19.5 6.38071 18.3807 7.5 17 7.5V8.5C18.933 8.5 20.5 6.933 20.5 5H19.5ZM17 7.5C15.6193 7.5 14.5 6.38071 14.5 5H13.5C13.5 6.933 15.067 8.5 17 8.5V7.5ZM14.5 5C14.5 3.61929 15.6193 2.5 17 2.5V1.5C15.067 1.5 13.5 3.067 13.5 5H14.5ZM17 2.5C18.3807 2.5 19.5 3.61929 19.5 5H20.5C20.5 3.067 18.933 1.5 17 1.5V2.5ZM18.1699 17.5H5.83014V18.5H18.1699V17.5ZM5.83158 12.8948L6.17646 9.85031L5.18281 9.73775L4.83794 12.7822L5.83158 12.8948ZM4.83654 15.2038C5.38864 14.5539 5.73485 13.7486 5.83158 12.8948L4.83794 12.7822C4.76327 13.4413 4.49629 14.0598 4.07445 14.5563L4.83654 15.2038ZM18.1684 12.8948C18.2651 13.7486 18.6114 14.5539 19.1635 15.2038L19.9256 14.5563C19.5037 14.0598 19.2367 13.4413 19.1621 12.7822L18.1684 12.8948ZM5.83014 17.5C4.71583 17.5 4.0602 16.1175 4.83654 15.2038L4.07445 14.5563C2.78397 16.0752 3.80579 18.5 5.83014 18.5V17.5ZM18.1699 18.5C20.1942 18.5 21.216 16.0752 19.9256 14.5563L19.1635 15.2038C19.9398 16.1175 19.2842 17.5 18.1699 17.5V18.5ZM6.17646 9.85031C6.4894 7.08776 8.56767 4.9532 11.1464 4.56389L10.9971 3.57509C7.959 4.03376 5.54527 6.53812 5.18281 9.73775L6.17646 9.85031ZM17.9405 10.883L18.1684 12.8948L19.1621 12.7822L18.9342 10.7705L17.9405 10.883ZM14.5318 19.8245C14.1711 20.787 13.1847 21.5 12 21.5V22.5C13.5853 22.5 14.9555 21.5434 15.4682 20.1755L14.5318 19.8245ZM12 21.5C10.8153 21.5 9.82891 20.787 9.4682 19.8245L8.5318 20.1755C9.04446 21.5434 10.4147 22.5 12 22.5V21.5Z" fill="#292929"/>
</svg>
