<svg width="24" height="24" viewBox="0 0 24 24" fill="none" xmlns="http://www.w3.org/2000/svg">
<path d="M15.8288 15.3761L15.4753 15.0226L15.8288 15.3761ZM8.62383 8.17118L8.27027 7.81763L8.62383 8.17118ZM10.3121 6.48295L10.6656 6.8365L10.3121 6.48295ZM17.517 13.6879L17.8706 14.0415L17.517 13.6879ZM5.74183 12.2469L6.09539 11.8934L5.74183 12.2469ZM11.7531 18.2581L11.3995 18.6117L11.7531 18.2581ZM20.399 9.61217L20.0455 9.96572L20.399 9.61217ZM14.3878 3.60096L14.7414 3.24741V3.24741L14.3878 3.60096ZM8.83876 15.8683C9.03402 15.6731 9.03402 15.3565 8.83876 15.1612C8.6435 14.966 8.32691 14.966 8.13165 15.1612L8.83876 15.8683ZM2.64645 20.6464C2.45118 20.8417 2.45118 21.1583 2.64645 21.3536C2.84171 21.5488 3.15829 21.5488 3.35355 21.3536L2.64645 20.6464ZM14.0343 3.95452L20.0455 9.96572L20.7526 9.25862L14.7414 3.24741L14.0343 3.95452ZM12.1066 17.9046L6.09539 11.8934L5.38828 12.6005L11.3995 18.6117L12.1066 17.9046ZM8.97738 8.52473L10.6656 6.8365L9.95851 6.1294L8.27027 7.81763L8.97738 8.52473ZM17.1635 13.3344L15.4753 15.0226L16.1824 15.7297L17.8706 14.0415L17.1635 13.3344ZM15.4753 15.0226C14.9993 15.4985 14.7319 16.1441 14.7319 16.8171H15.7319C15.7319 16.4093 15.894 16.0181 16.1824 15.7297L15.4753 15.0226ZM7.18283 9.26806C7.85592 9.26806 8.50143 9.00068 8.97738 8.52473L8.27027 7.81763C7.98186 8.10603 7.5907 8.26806 7.18283 8.26806V9.26806ZM10.4089 5.04196C10.4089 5.44983 10.2469 5.84099 9.95851 6.1294L10.6656 6.8365C11.1416 6.36056 11.4089 5.71504 11.4089 5.04196H10.4089ZM18.958 12.591C18.2849 12.591 17.6394 12.8584 17.1635 13.3344L17.8706 14.0415C18.159 13.7531 18.5502 13.591 18.958 13.591V12.591ZM6.09539 11.8934C5.12658 10.9246 5.81273 9.26806 7.18283 9.26806V8.26806C4.92182 8.26806 3.78951 11.0017 5.38828 12.6005L6.09539 11.8934ZM11.3995 18.6117C12.9983 20.2105 15.7319 19.0781 15.7319 16.8171H14.7319C14.7319 18.1872 13.0754 18.8734 12.1066 17.9046L11.3995 18.6117ZM20.0455 9.96572C21.0143 10.9345 20.3281 12.591 18.958 12.591V13.591C21.219 13.591 22.3514 10.8574 20.7526 9.25862L20.0455 9.96572ZM14.7414 3.24741C13.1426 1.64864 10.4089 2.78095 10.4089 5.04196H11.4089C11.4089 3.67186 13.0654 2.98571 14.0343 3.95452L14.7414 3.24741ZM8.13165 15.1612L2.64645 20.6464L3.35355 21.3536L8.83876 15.8683L8.13165 15.1612Z" fill="#292929"/>
</svg>
