<svg width="24" height="24" viewBox="0 0 24 24" fill="none" xmlns="http://www.w3.org/2000/svg">
<rect x="3" y="8" width="18" height="14" rx="3" stroke="#292929"/>
<circle r="1" transform="matrix(1 0 0 -1 18 19)" fill="#292929"/>
<circle r="1" transform="matrix(1 0 0 -1 6 11)" fill="#292929"/>
<circle r="2" transform="matrix(1 0 0 -1 12 15)" stroke="#292929"/>
<path d="M14.3536 3.23223C14.5488 3.4275 14.5488 3.74408 14.3536 3.93934C14.1583 4.1346 13.8417 4.1346 13.6464 3.93934L14.3536 3.23223ZM12.7071 2.29289L13.0607 1.93934L12.7071 2.29289ZM11.2929 2.29289L11.6464 2.64645L11.6464 2.64645L11.2929 2.29289ZM10.3536 3.93934C10.1583 4.1346 9.84171 4.1346 9.64645 3.93934C9.45118 3.74408 9.45118 3.4275 9.64645 3.23223L10.3536 3.93934ZM12.5 5.5C12.5 5.77614 12.2761 6 12 6C11.7239 6 11.5 5.77614 11.5 5.5H12.5ZM11.5 2.58579C11.5 2.30964 11.7239 2.08579 12 2.08579C12.2761 2.08579 12.5 2.30964 12.5 2.58579H11.5ZM13.6464 3.93934L12.3536 2.64645L13.0607 1.93934L14.3536 3.23223L13.6464 3.93934ZM11.6464 2.64645L10.3536 3.93934L9.64645 3.23223L10.9393 1.93934L11.6464 2.64645ZM12.3536 2.64645C12.1583 2.45118 11.8417 2.45118 11.6464 2.64645L10.9393 1.93934C11.5251 1.35355 12.4749 1.35355 13.0607 1.93934L12.3536 2.64645ZM11.5 5.5V2.58579H12.5V5.5H11.5Z" fill="#292929"/>
</svg>
