<svg width="24" height="24" viewBox="0 0 24 24" fill="none" xmlns="http://www.w3.org/2000/svg">
<path d="M15.182 9.52512C15.3772 9.32986 15.3772 9.01328 15.182 8.81802C14.9867 8.62275 14.6701 8.62275 14.4749 8.81802L15.182 9.52512ZM8.81802 14.4749C8.62276 14.6701 8.62276 14.9867 8.81802 15.182C9.01328 15.3772 9.32987 15.3772 9.52513 15.182L8.81802 14.4749ZM14.4749 15.182C14.6701 15.3772 14.9867 15.3772 15.182 15.182C15.3772 14.9867 15.3772 14.6701 15.182 14.4749L14.4749 15.182ZM9.52513 8.81802C9.32987 8.62276 9.01328 8.62276 8.81802 8.81802C8.62276 9.01328 8.62276 9.32987 8.81802 9.52513L9.52513 8.81802ZM14.4749 8.81802L8.81802 14.4749L9.52513 15.182L15.182 9.52512L14.4749 8.81802ZM15.182 14.4749L9.52513 8.81802L8.81802 9.52513L14.4749 15.182L15.182 14.4749ZM18 1.5H6V2.5H18V1.5ZM1.5 6V18H2.5V6H1.5ZM6 22.5H18V21.5H6V22.5ZM22.5 18V6H21.5V18H22.5ZM18 22.5C20.4853 22.5 22.5 20.4853 22.5 18H21.5C21.5 19.933 19.933 21.5 18 21.5V22.5ZM1.5 18C1.5 20.4853 3.51472 22.5 6 22.5V21.5C4.067 21.5 2.5 19.933 2.5 18H1.5ZM6 1.5C3.51472 1.5 1.5 3.51472 1.5 6H2.5C2.5 4.067 4.067 2.5 6 2.5V1.5ZM18 2.5C19.933 2.5 21.5 4.067 21.5 6H22.5C22.5 3.51472 20.4853 1.5 18 1.5V2.5Z" fill="#292929"/>
</svg>
