<svg width="24" height="24" viewBox="0 0 24 24" fill="none" xmlns="http://www.w3.org/2000/svg">
<path d="M14.4749 15.182C14.6701 15.3772 14.9867 15.3772 15.182 15.182C15.3772 14.9867 15.3772 14.6701 15.182 14.4749L14.4749 15.182ZM9.52513 8.81802C9.32987 8.62276 9.01328 8.62276 8.81802 8.81802C8.62276 9.01328 8.62276 9.32987 8.81802 9.52513L9.52513 8.81802ZM8.81802 14.4749C8.62275 14.6701 8.62275 14.9867 8.81802 15.182C9.01328 15.3772 9.32986 15.3772 9.52512 15.182L8.81802 14.4749ZM15.182 9.52513C15.3772 9.32987 15.3772 9.01328 15.182 8.81802C14.9867 8.62276 14.6701 8.62276 14.4749 8.81802L15.182 9.52513ZM15.182 14.4749L9.52513 8.81802L8.81802 9.52513L14.4749 15.182L15.182 14.4749ZM9.52512 15.182L15.182 9.52513L14.4749 8.81802L8.81802 14.4749L9.52512 15.182ZM12 22.5C17.799 22.5 22.5 17.799 22.5 12H21.5C21.5 17.2467 17.2467 21.5 12 21.5V22.5ZM1.5 12C1.5 17.799 6.20101 22.5 12 22.5V21.5C6.7533 21.5 2.5 17.2467 2.5 12H1.5ZM12 1.5C6.20101 1.5 1.5 6.20101 1.5 12H2.5C2.5 6.7533 6.7533 2.5 12 2.5V1.5ZM12 2.5C17.2467 2.5 21.5 6.7533 21.5 12H22.5C22.5 6.20101 17.799 1.5 12 1.5V2.5Z" fill="#292929"/>
</svg>
