<svg width="24" height="24" viewBox="0 0 24 24" fill="none" xmlns="http://www.w3.org/2000/svg">
<path d="M13.5 12C13.5 12.2761 13.7239 12.5 14 12.5C14.2761 12.5 14.5 12.2761 14.5 12H13.5ZM9.5 12C9.5 12.2761 9.72386 12.5 10 12.5C10.2761 12.5 10.5 12.2761 10.5 12H9.5ZM10 9.5C9.72386 9.5 9.5 9.72386 9.5 10C9.5 10.2761 9.72386 10.5 10 10.5V9.5ZM14 10.5C14.2761 10.5 14.5 10.2761 14.5 10C14.5 9.72386 14.2761 9.5 14 9.5V10.5ZM8 14.5C7.72386 14.5 7.5 14.7239 7.5 15C7.5 15.2761 7.72386 15.5 8 15.5V14.5ZM16 15.5C16.2761 15.5 16.5 15.2761 16.5 15C16.5 14.7239 16.2761 14.5 16 14.5V15.5ZM8 17.5C7.72386 17.5 7.5 17.7239 7.5 18C7.5 18.2761 7.72386 18.5 8 18.5V17.5ZM12 18.5C12.2761 18.5 12.5 18.2761 12.5 18C12.5 17.7239 12.2761 17.5 12 17.5V18.5ZM7 2.5H17V1.5H7V2.5ZM20.5 6V18H21.5V6H20.5ZM17 21.5H7V22.5H17V21.5ZM3.5 18V6H2.5V18H3.5ZM7 21.5C5.067 21.5 3.5 19.933 3.5 18H2.5C2.5 20.4853 4.51472 22.5 7 22.5V21.5ZM20.5 18C20.5 19.933 18.933 21.5 17 21.5V22.5C19.4853 22.5 21.5 20.4853 21.5 18H20.5ZM17 2.5C18.933 2.5 20.5 4.067 20.5 6H21.5C21.5 3.51472 19.4853 1.5 17 1.5V2.5ZM7 1.5C4.51472 1.5 2.5 3.51472 2.5 6H3.5C3.5 4.067 5.067 2.5 7 2.5V1.5ZM13.5 8V12H14.5V8H13.5ZM10.5 12V8H9.5V12H10.5ZM12 6.5C12.8284 6.5 13.5 7.17157 13.5 8H14.5C14.5 6.61929 13.3807 5.5 12 5.5V6.5ZM12 5.5C10.6193 5.5 9.5 6.61929 9.5 8H10.5C10.5 7.17157 11.1716 6.5 12 6.5V5.5ZM10 10.5H14V9.5H10V10.5ZM8 15.5H16V14.5H8V15.5ZM8 18.5H12V17.5H8V18.5Z" fill="#292929"/>
</svg>
