<svg width="24" height="24" viewBox="0 0 24 24" fill="none" xmlns="http://www.w3.org/2000/svg">
<path d="M22.8766 18.9899L23.3611 19.1132V19.1132L22.8766 18.9899ZM10.8766 18.9899L11.3611 19.1132L10.8766 18.9899ZM15 7.5C15.2761 7.5 15.5 7.27614 15.5 7C15.5 6.72386 15.2761 6.5 15 6.5V7.5ZM7 6.5C6.72386 6.5 6.5 6.72386 6.5 7C6.5 7.27614 6.72386 7.5 7 7.5V6.5ZM11 12.5C11.2761 12.5 11.5 12.2761 11.5 12C11.5 11.7239 11.2761 11.5 11 11.5V12.5ZM7 11.5C6.72386 11.5 6.5 11.7239 6.5 12C6.5 12.2761 6.72386 12.5 7 12.5V11.5ZM22.392 18.8665C22.0066 20.3807 20.6334 21.5 19 21.5V22.5C21.1016 22.5 22.8656 21.0598 23.3611 19.1132L22.392 18.8665ZM10.392 18.8665C10.0066 20.3807 8.63337 21.5 7 21.5V22.5C9.1016 22.5 10.8656 21.0598 11.3611 19.1132L10.392 18.8665ZM2.5 18C2.5 20.4853 4.51472 22.5 7 22.5V21.5C5.067 21.5 3.5 19.933 3.5 18H2.5ZM19 21.5H7V22.5H19V21.5ZM3.5 18V5H2.5V18H3.5ZM6 2.5H16V1.5H6V2.5ZM12 18.5H19V17.5H12V18.5ZM19 18.5H22V17.5H19V18.5ZM18.5 5V18H19.5V5H18.5ZM16 2.5C17.3807 2.5 18.5 3.61929 18.5 5H19.5C19.5 3.067 17.933 1.5 16 1.5V2.5ZM11.3611 19.1132C11.46 18.7247 11.7454 18.5 12 18.5V17.5C11.15 17.5 10.5656 18.1846 10.392 18.8665L11.3611 19.1132ZM3.5 5C3.5 3.61929 4.61929 2.5 6 2.5V1.5C4.067 1.5 2.5 3.067 2.5 5H3.5ZM23.3611 19.1132C23.6001 18.1745 22.782 17.5 22 17.5V18.5C22.1415 18.5 22.2601 18.5589 22.3296 18.6339C22.3928 18.7022 22.4144 18.7786 22.392 18.8665L23.3611 19.1132ZM15 6.5H7V7.5H15V6.5ZM11 11.5H7V12.5H11V11.5Z" fill="#292929"/>
</svg>
