<svg width="24" height="24" viewBox="0 0 24 24" fill="none" xmlns="http://www.w3.org/2000/svg">
<path d="M18.8536 18.1464C18.6583 17.9512 18.3417 17.9512 18.1464 18.1464C17.9512 18.3417 17.9512 18.6583 18.1464 18.8536L18.8536 18.1464ZM21.6464 22.3536C21.8417 22.5488 22.1583 22.5488 22.3536 22.3536C22.5488 22.1583 22.5488 21.8417 22.3536 21.6464L21.6464 22.3536ZM21.5 11.5C21.5 5.97715 17.0228 1.5 11.5 1.5V2.5C16.4706 2.5 20.5 6.52944 20.5 11.5H21.5ZM11.5 1.5C5.97715 1.5 1.5 5.97715 1.5 11.5H2.5C2.5 6.52944 6.52944 2.5 11.5 2.5V1.5ZM1.5 11.5C1.5 17.0228 5.97715 21.5 11.5 21.5V20.5C6.52944 20.5 2.5 16.4706 2.5 11.5H1.5ZM11.5 21.5C17.0228 21.5 21.5 17.0228 21.5 11.5H20.5C20.5 16.4706 16.4706 20.5 11.5 20.5V21.5ZM18.1464 18.8536L21.6464 22.3536L22.3536 21.6464L18.8536 18.1464L18.1464 18.8536Z" fill="#292929"/>
</svg>
