<svg width="24" height="24" viewBox="0 0 24 24" fill="none" xmlns="http://www.w3.org/2000/svg">
<path d="M20.7439 15.7206L20.3175 15.4595L20.7439 15.7206ZM19.7894 17.2794L20.2158 17.5405L19.7894 17.2794ZM3.25609 8.27942L2.82968 8.01831H2.82968L3.25609 8.27942ZM4.21064 6.72057L4.63705 6.98168H4.63705L4.21064 6.72057ZM6.81852 6.06172L7.05757 5.62257L7.05757 5.62257L6.81852 6.06172ZM3.95487 10.7383L3.71581 11.1774H3.71581L3.95487 10.7383ZM17.1815 17.9383L16.9424 18.3774H16.9424L17.1815 17.9383ZM20.0451 13.2617L19.8061 13.7009L20.0451 13.2617ZM4.21064 17.2794L3.78423 17.5405H3.78423L4.21064 17.2794ZM3.25609 15.7206L3.6825 15.4595H3.6825L3.25609 15.7206ZM19.7894 6.72058L20.2158 6.45948V6.45948L19.7894 6.72058ZM20.7439 8.27943L20.3175 8.54054V8.54054L20.7439 8.27943ZM20.0451 10.7383L20.2842 11.1774L20.0451 10.7383ZM17.1815 6.06174L17.4205 6.50089L17.1815 6.06174ZM3.95487 13.2617L4.19392 13.7009H4.19392L3.95487 13.2617ZM6.81851 17.9383L6.57946 17.4991L6.57946 17.4991L6.81851 17.9383ZM17.08 6.11698L16.841 5.67783L17.08 6.11698ZM6.92 6.11697L6.68095 6.55612L6.68095 6.55612L6.92 6.11697ZM17.08 17.883L17.3191 17.4439L17.3191 17.4439L17.08 17.883ZM6.92 17.883L7.15905 18.3222L7.15905 18.3222L6.92 17.883ZM11.0455 3.5H12.9545V2.5H11.0455V3.5ZM12.9545 20.5H11.0455V21.5H12.9545V20.5ZM11.0455 20.5C10.2391 20.5 9.63635 19.8907 9.63635 19.2H8.63635C8.63635 20.4976 9.74307 21.5 11.0455 21.5V20.5ZM14.3636 19.2C14.3636 19.8907 13.7609 20.5 12.9545 20.5V21.5C14.2569 21.5 15.3636 20.4976 15.3636 19.2H14.3636ZM12.9545 3.5C13.7609 3.5 14.3636 4.10934 14.3636 4.8H15.3636C15.3636 3.50243 14.2569 2.5 12.9545 2.5V3.5ZM11.0455 2.5C9.74307 2.5 8.63635 3.50243 8.63635 4.8H9.63635C9.63635 4.10934 10.2391 3.5 11.0455 3.5V2.5ZM20.3175 15.4595L19.363 17.0183L20.2158 17.5405L21.1703 15.9817L20.3175 15.4595ZM3.6825 8.54052L4.63705 6.98168L3.78423 6.45946L2.82968 8.01831L3.6825 8.54052ZM4.63705 6.98168C5.01853 6.35868 5.88883 6.12493 6.57946 6.50087L7.05757 5.62257C5.92198 5.00441 4.45711 5.36061 3.78423 6.45946L4.63705 6.98168ZM4.19392 10.2991C3.5189 9.93166 3.3125 9.14475 3.6825 8.54052L2.82968 8.01831C2.14531 9.13593 2.56463 10.5508 3.71581 11.1774L4.19392 10.2991ZM19.363 17.0183C18.9815 17.6413 18.1112 17.8751 17.4205 17.4991L16.9424 18.3774C18.078 18.9956 19.5429 18.6394 20.2158 17.5405L19.363 17.0183ZM21.1703 15.9817C21.8547 14.8641 21.4354 13.4492 20.2842 12.8226L19.8061 13.7009C20.4811 14.0683 20.6875 14.8552 20.3175 15.4595L21.1703 15.9817ZM4.63705 17.0183L3.6825 15.4595L2.82968 15.9817L3.78423 17.5405L4.63705 17.0183ZM19.363 6.98169L20.3175 8.54054L21.1703 8.01832L20.2158 6.45948L19.363 6.98169ZM20.3175 8.54054C20.6875 9.14477 20.4811 9.93167 19.8061 10.2991L20.2842 11.1774C21.4354 10.5508 21.8547 9.13594 21.1703 8.01832L20.3175 8.54054ZM17.4205 6.50089C18.1112 6.12494 18.9815 6.3587 19.363 6.98169L20.2158 6.45948C19.5429 5.36062 18.078 5.00442 16.9424 5.62259L17.4205 6.50089ZM3.6825 15.4595C3.3125 14.8552 3.51889 14.0683 4.19392 13.7009L3.71581 12.8226C2.56463 13.4492 2.14531 14.8641 2.82968 15.9817L3.6825 15.4595ZM3.78423 17.5405C4.45711 18.6394 5.92198 18.9956 7.05757 18.3774L6.57946 17.4991C5.88883 17.8751 5.01853 17.6413 4.63705 17.0183L3.78423 17.5405ZM17.3191 6.55613L17.4205 6.50089L16.9424 5.62259L16.841 5.67783L17.3191 6.55613ZM6.57946 6.50087L6.68095 6.55612L7.15906 5.67782L7.05757 5.62257L6.57946 6.50087ZM17.4205 17.4991L17.3191 17.4439L16.841 18.3222L16.9424 18.3774L17.4205 17.4991ZM6.68095 17.4439L6.57946 17.4991L7.05757 18.3774L7.15905 18.3222L6.68095 17.4439ZM3.71581 11.1774C4.36753 11.5322 4.36753 12.4678 3.71581 12.8226L4.19392 13.7009C5.54149 12.9673 5.54149 11.0327 4.19392 10.2991L3.71581 11.1774ZM7.15905 18.3222C7.82504 17.9596 8.63635 18.4417 8.63635 19.2H9.63635C9.63635 17.683 8.01329 16.7186 6.68095 17.4439L7.15905 18.3222ZM15.3636 19.2C15.3636 18.4417 16.175 17.9596 16.841 18.3222L17.3191 17.4439C15.9867 16.7186 14.3636 17.683 14.3636 19.2H15.3636ZM20.2842 12.8226C19.6325 12.4678 19.6325 11.5322 20.2842 11.1774L19.8061 10.2991C18.4585 11.0327 18.4585 12.9673 19.8061 13.7009L20.2842 12.8226ZM6.68095 6.55612C8.01329 7.28139 9.63635 6.31696 9.63635 4.8H8.63635C8.63635 5.55827 7.82504 6.04035 7.15906 5.67782L6.68095 6.55612ZM16.841 5.67783C16.175 6.04036 15.3636 5.55828 15.3636 4.8H14.3636C14.3636 6.31696 15.9867 7.2814 17.3191 6.55613L16.841 5.67783ZM14.5 12C14.5 13.3807 13.3807 14.5 12 14.5V15.5C13.933 15.5 15.5 13.933 15.5 12H14.5ZM12 14.5C10.6193 14.5 9.50001 13.3807 9.50001 12H8.50001C8.50001 13.933 10.067 15.5 12 15.5V14.5ZM9.50001 12C9.50001 10.6193 10.6193 9.5 12 9.5V8.5C10.067 8.5 8.50001 10.067 8.50001 12H9.50001ZM12 9.5C13.3807 9.5 14.5 10.6193 14.5 12H15.5C15.5 10.067 13.933 8.5 12 8.5V9.5Z" fill="#292929"/>
</svg>
