<svg width="24" height="24" viewBox="0 0 24 24" fill="none" xmlns="http://www.w3.org/2000/svg">
<path d="M21.5 5.5C21.5 7.15685 20.1569 8.5 18.5 8.5V9.5C20.7091 9.5 22.5 7.70914 22.5 5.5H21.5ZM15.5 5.5C15.5 3.84315 16.8431 2.5 18.5 2.5V1.5C16.2909 1.5 14.5 3.29086 14.5 5.5H15.5ZM18.5 2.5C20.1569 2.5 21.5 3.84315 21.5 5.5H22.5C22.5 3.29086 20.7091 1.5 18.5 1.5V2.5ZM21.5 18.5C21.5 20.1569 20.1569 21.5 18.5 21.5V22.5C20.7091 22.5 22.5 20.7091 22.5 18.5H21.5ZM18.5 21.5C16.8431 21.5 15.5 20.1569 15.5 18.5H14.5C14.5 20.7091 16.2909 22.5 18.5 22.5V21.5ZM18.5 15.5C20.1569 15.5 21.5 16.8431 21.5 18.5H22.5C22.5 16.2909 20.7091 14.5 18.5 14.5V15.5ZM5.5 15C3.84315 15 2.5 13.6569 2.5 12H1.5C1.5 14.2091 3.29086 16 5.5 16V15ZM2.5 12C2.5 10.3431 3.84315 9 5.5 9V8C3.29086 8 1.5 9.79086 1.5 12H2.5ZM5.5 9C6.67376 9 7.691 9.674 8.18414 10.6584L9.07822 10.2105C8.42212 8.90081 7.06671 8 5.5 8V9ZM8.18414 10.6584C8.3861 11.0615 8.5 11.5167 8.5 12H9.5C9.5 11.3577 9.34826 10.7495 9.07822 10.2105L8.18414 10.6584ZM8.5 12C8.5 12.4833 8.3861 12.9385 8.18414 13.3416L9.07822 13.7895C9.34826 13.2505 9.5 12.6423 9.5 12H8.5ZM8.18414 13.3416C7.691 14.326 6.67376 15 5.5 15V16C7.06671 16 8.42212 15.0992 9.07822 13.7895L8.18414 13.3416ZM8.85479 10.8816L15.5924 7.5128L15.1452 6.61838L8.40757 9.9872L8.85479 10.8816ZM18.5 8.5C17.3262 8.5 16.309 7.826 15.8159 6.84163L14.9218 7.28955C15.5779 8.59919 16.9333 9.5 18.5 9.5V8.5ZM15.8159 6.84163C15.6139 6.4385 15.5 5.98327 15.5 5.5H14.5C14.5 6.14226 14.6517 6.75052 14.9218 7.28955L15.8159 6.84163ZM15.5924 16.4872L8.85479 13.1184L8.40757 14.0128L15.1452 17.3816L15.5924 16.4872ZM15.5 18.5C15.5 18.0167 15.6139 17.5615 15.8159 17.1584L14.9218 16.7105C14.6517 17.2495 14.5 17.8577 14.5 18.5H15.5ZM15.8159 17.1584C16.309 16.174 17.3262 15.5 18.5 15.5V14.5C16.9333 14.5 15.5779 15.4008 14.9218 16.7105L15.8159 17.1584Z" fill="#292929"/>
</svg>
