<svg width="24" height="24" viewBox="0 0 24 24" fill="none" xmlns="http://www.w3.org/2000/svg">
<path d="M6.99037 7.44888L7.06506 7.94327L6.99037 7.44888ZM8.64211 6.20118L8.19041 5.98677L8.64211 6.20118ZM2.66488 11.8091L3.02078 11.4579H3.02078L2.66488 11.8091ZM3.88066 7.91869L3.80597 7.4243L3.88066 7.91869ZM5.54599 16.1084L6.03932 16.1898L5.54599 16.1084ZM4.91508 14.0896L4.55917 14.4408L4.91508 14.0896ZM8.19776 21.7329L7.95795 21.2942L8.19776 21.7329ZM5.01479 19.3286L4.52145 19.2472L5.01479 19.3286ZM13.0208 20.2126L12.781 20.6513L13.0208 20.2126ZM10.9792 20.2126L11.219 20.6513L10.9792 20.2126ZM18.9852 19.3285L19.4785 19.2472L18.9852 19.3285ZM15.8022 21.7329L16.0421 21.2942L15.8022 21.7329ZM19.0849 14.0896L18.729 13.7384L19.0849 14.0896ZM18.454 16.1084L17.9607 16.1898L18.454 16.1084ZM20.1193 7.91869L20.194 7.4243L20.1193 7.91869ZM21.3351 11.8091L21.691 12.1603L21.3351 11.8091ZM15.3579 6.20118L15.8096 5.98677L15.3579 6.20118ZM17.0096 7.44888L16.9349 7.94327L17.0096 7.44888ZM13.9672 3.27141L13.5155 3.48582L13.9672 3.27141ZM10.0328 3.27141L10.4845 3.48582L10.0328 3.27141ZM13.5155 3.48582L14.9062 6.41559L15.8096 5.98677L14.4189 3.057L13.5155 3.48582ZM16.9349 7.94327L20.0446 8.41308L20.194 7.4243L17.0843 6.95449L16.9349 7.94327ZM20.9792 11.4579L18.729 13.7384L19.4408 14.4408L21.691 12.1603L20.9792 11.4579ZM17.9607 16.1898L18.4919 19.4099L19.4785 19.2472L18.9473 16.027L17.9607 16.1898ZM16.0421 21.2942L13.2606 19.7739L12.781 20.6513L15.5624 22.1717L16.0421 21.2942ZM10.7394 19.7739L7.95795 21.2942L8.43758 22.1717L11.219 20.6513L10.7394 19.7739ZM5.50812 19.4099L6.03932 16.1898L5.05266 16.027L4.52145 19.2472L5.50812 19.4099ZM5.27099 13.7384L3.02078 11.4579L2.30897 12.1603L4.55917 14.4408L5.27099 13.7384ZM3.95535 8.41308L7.06506 7.94327L6.91568 6.95449L3.80597 7.4243L3.95535 8.41308ZM9.0938 6.41559L10.4845 3.48582L9.58112 3.057L8.19041 5.98677L9.0938 6.41559ZM7.06506 7.94327C7.95003 7.80957 8.70563 7.23335 9.0938 6.41559L8.19041 5.98677C7.93951 6.51535 7.45974 6.8723 6.91568 6.95449L7.06506 7.94327ZM3.02078 11.4579C1.98695 10.4101 2.58635 8.61991 3.95535 8.41308L3.80597 7.4243C1.5763 7.76116 0.738787 10.5689 2.30897 12.1603L3.02078 11.4579ZM6.03932 16.1898C6.18684 15.2955 5.90287 14.3788 5.27099 13.7384L4.55917 14.4408C4.96135 14.8484 5.14924 15.4415 5.05266 16.027L6.03932 16.1898ZM7.95795 21.2942C6.75386 21.9524 5.26112 20.9072 5.50812 19.4099L4.52145 19.2472C4.15373 21.4763 6.42293 23.2729 8.43758 22.1717L7.95795 21.2942ZM13.2606 19.7739C12.4721 19.3429 11.5279 19.3429 10.7394 19.7739L11.219 20.6513C11.7086 20.3837 12.2914 20.3837 12.781 20.6513L13.2606 19.7739ZM18.4919 19.4099C18.7389 20.9072 17.2461 21.9524 16.0421 21.2942L15.5624 22.1717C17.5771 23.2729 19.8463 21.4763 19.4785 19.2472L18.4919 19.4099ZM18.729 13.7384C18.0971 14.3788 17.8132 15.2955 17.9607 16.1898L18.9473 16.027C18.8508 15.4415 19.0386 14.8484 19.4408 14.4408L18.729 13.7384ZM20.0446 8.41308C21.4136 8.61991 22.0131 10.4101 20.9792 11.4579L21.691 12.1603C23.2612 10.5689 22.4237 7.76116 20.194 7.4243L20.0446 8.41308ZM14.9062 6.41559C15.2944 7.23335 16.05 7.80957 16.9349 7.94327L17.0843 6.95449C16.5403 6.8723 16.0605 6.51535 15.8096 5.98677L14.9062 6.41559ZM14.4189 3.057C13.4334 0.980997 10.5666 0.981003 9.58112 3.057L10.4845 3.48582C11.1084 2.17139 12.8916 2.17139 13.5155 3.48582L14.4189 3.057Z" fill="#292929"/>
</svg>
