<svg width="24" height="24" viewBox="0 0 24 24" fill="none" xmlns="http://www.w3.org/2000/svg">
<path d="M12.5 2C12.5 1.72386 12.2761 1.5 12 1.5C11.7239 1.5 11.5 1.72386 11.5 2H12.5ZM11.5 3C11.5 3.27614 11.7239 3.5 12 3.5C12.2761 3.5 12.5 3.27614 12.5 3H11.5ZM12.5 21C12.5 20.7239 12.2761 20.5 12 20.5C11.7239 20.5 11.5 20.7239 11.5 21H12.5ZM11.5 22C11.5 22.2761 11.7239 22.5 12 22.5C12.2761 22.5 12.5 22.2761 12.5 22H11.5ZM20.9102 7.43301C21.1494 7.29494 21.2313 6.98915 21.0932 6.75C20.9552 6.51085 20.6494 6.42892 20.4102 6.56699L20.9102 7.43301ZM19.5442 7.06699C19.305 7.20506 19.2231 7.51085 19.3612 7.75C19.4993 7.98915 19.805 8.07108 20.0442 7.93301L19.5442 7.06699ZM4.45575 16.933C4.6949 16.7949 4.77683 16.4891 4.63876 16.25C4.50069 16.0109 4.1949 15.9289 3.95575 16.067L4.45575 16.933ZM3.08972 16.567C2.85058 16.7051 2.76864 17.0109 2.90671 17.25C3.04478 17.4891 3.35058 17.5711 3.58972 17.433L3.08972 16.567ZM3.58972 6.56699C3.35058 6.42892 3.04478 6.51085 2.90671 6.75C2.76864 6.98915 2.85058 7.29494 3.08972 7.43301L3.58972 6.56699ZM3.95575 7.93301C4.19489 8.07108 4.50069 7.98915 4.63876 7.75C4.77683 7.51085 4.69489 7.20506 4.45575 7.06699L3.95575 7.93301ZM20.0442 16.067C19.805 15.9289 19.4992 16.0109 19.3612 16.25C19.2231 16.4891 19.305 16.7949 19.5442 16.933L20.0442 16.067ZM20.4102 17.433C20.6494 17.5711 20.9552 17.4891 21.0932 17.25C21.2313 17.0109 21.1494 16.7051 20.9102 16.567L20.4102 17.433ZM17.5 12C17.5 15.0376 15.0376 17.5 12 17.5V18.5C15.5899 18.5 18.5 15.5899 18.5 12H17.5ZM12 17.5C8.96243 17.5 6.5 15.0376 6.5 12H5.5C5.5 15.5899 8.41015 18.5 12 18.5V17.5ZM6.5 12C6.5 8.96243 8.96243 6.5 12 6.5V5.5C8.41015 5.5 5.5 8.41015 5.5 12H6.5ZM12 6.5C15.0376 6.5 17.5 8.96243 17.5 12H18.5C18.5 8.41015 15.5899 5.5 12 5.5V6.5ZM11.5 2V3H12.5V2H11.5ZM11.5 21V22H12.5V21H11.5ZM20.4102 6.56699L19.5442 7.06699L20.0442 7.93301L20.9102 7.43301L20.4102 6.56699ZM3.95575 16.067L3.08972 16.567L3.58972 17.433L4.45575 16.933L3.95575 16.067ZM3.08972 7.43301L3.95575 7.93301L4.45575 7.06699L3.58972 6.56699L3.08972 7.43301ZM19.5442 16.933L20.4102 17.433L20.9102 16.567L20.0442 16.067L19.5442 16.933Z" fill="#292929"/>
</svg>
