<svg width="24" height="24" viewBox="0 0 24 24" fill="none" xmlns="http://www.w3.org/2000/svg">
<rect x="2" y="2" width="10" height="8" rx="2" stroke="#292929"/>
<rect x="12" y="14" width="10" height="8" rx="2" stroke="#292929"/>
<path d="M20.7678 3.64645C20.5725 3.45118 20.2559 3.45118 20.0607 3.64645C19.8654 3.84171 19.8654 4.15829 20.0607 4.35355L20.7678 3.64645ZM21.7071 5.29289L22.0607 4.93934L21.7071 5.29289ZM21.7071 6.70711L21.3536 6.35355L21.3536 6.35355L21.7071 6.70711ZM20.0607 7.64645C19.8654 7.84171 19.8654 8.15829 20.0607 8.35355C20.2559 8.54882 20.5725 8.54882 20.7678 8.35355L20.0607 7.64645ZM16 5.5C15.7239 5.5 15.5 5.72386 15.5 6C15.5 6.27614 15.7239 6.5 16 6.5L16 5.5ZM21.4142 6.5C21.6904 6.5 21.9142 6.27614 21.9142 6C21.9142 5.72386 21.6904 5.5 21.4142 5.5L21.4142 6.5ZM20.0607 4.35355L21.3536 5.64645L22.0607 4.93934L20.7678 3.64645L20.0607 4.35355ZM21.3536 6.35355L20.0607 7.64645L20.7678 8.35355L22.0607 7.06066L21.3536 6.35355ZM21.3536 5.64645C21.5488 5.84171 21.5488 6.15829 21.3536 6.35355L22.0607 7.06066C22.6464 6.47487 22.6464 5.52513 22.0607 4.93934L21.3536 5.64645ZM16 6.5L21.4142 6.5L21.4142 5.5L16 5.5L16 6.5Z" fill="#292929"/>
<path d="M3.23223 15.6464C3.4275 15.4512 3.74408 15.4512 3.93934 15.6464C4.1346 15.8417 4.1346 16.1583 3.93934 16.3536L3.23223 15.6464ZM2.29289 17.2929L1.93934 16.9393L2.29289 17.2929ZM2.29289 18.7071L2.64645 18.3536L2.64645 18.3536L2.29289 18.7071ZM3.93934 19.6464C4.1346 19.8417 4.1346 20.1583 3.93934 20.3536C3.74408 20.5488 3.4275 20.5488 3.23223 20.3536L3.93934 19.6464ZM8 17.5C8.27614 17.5 8.5 17.7239 8.5 18C8.5 18.2761 8.27614 18.5 8 18.5L8 17.5ZM2.58579 18.5C2.30964 18.5 2.08579 18.2761 2.08579 18C2.08579 17.7239 2.30964 17.5 2.58579 17.5L2.58579 18.5ZM3.93934 16.3536L2.64645 17.6464L1.93934 16.9393L3.23223 15.6464L3.93934 16.3536ZM2.64645 18.3536L3.93934 19.6464L3.23223 20.3536L1.93934 19.0607L2.64645 18.3536ZM2.64645 17.6464C2.45118 17.8417 2.45118 18.1583 2.64645 18.3536L1.93934 19.0607C1.35355 18.4749 1.35355 17.5251 1.93934 16.9393L2.64645 17.6464ZM8 18.5L2.58579 18.5L2.58579 17.5L8 17.5L8 18.5Z" fill="#292929"/>
</svg>
