<svg width="24" height="24" viewBox="0 0 24 24" fill="none" xmlns="http://www.w3.org/2000/svg">
<path d="M19.2976 4.44458L19.0992 3.98561V3.98561L19.2976 4.44458ZM3.90891 11.0952L3.71055 10.6362H3.71055L3.90891 11.0952ZM20.682 5.51906L21.1758 5.59732V5.59732L20.682 5.51906ZM18.5779 18.795L18.0841 18.7168L18.5779 18.795ZM16.8631 19.325L16.4984 19.667L16.4995 19.6682L16.8631 19.325ZM4.16248 13.0028L4.09091 13.4977H4.09091L4.16248 13.0028ZM10.6065 12.8927L10.328 12.4775L10.6065 12.8927ZM7.80554 13.5297L7.87711 13.0349L7.80554 13.5297ZM15.7232 9.92966L15.3284 9.62289C15.3243 9.62808 15.3204 9.63334 15.3166 9.63869L15.7232 9.92966ZM15.4538 9.64086L15.7324 10.0561L15.4538 9.64086ZM13.5295 15.7699L13.8942 15.4279L13.893 15.4267L13.5295 15.7699ZM13.4045 13.1698L13.7993 13.4766C13.8033 13.4714 13.8072 13.4662 13.8111 13.4608L13.4045 13.1698ZM19.0992 3.98561L3.71055 10.6362L4.10726 11.5542L19.4959 4.90355L19.0992 3.98561ZM21.1758 5.59732C21.3609 4.42936 20.1847 3.51648 19.0992 3.98561L19.4959 4.90355C19.8578 4.74718 20.2498 5.05147 20.1881 5.44079L21.1758 5.59732ZM19.0718 18.8733L21.1758 5.59732L20.1881 5.44079L18.0841 18.7168L19.0718 18.8733ZM16.4995 19.6682C17.3545 20.5738 18.8768 20.1034 19.0718 18.8733L18.0841 18.7168C18.0191 19.1268 17.5117 19.2836 17.2267 18.9817L16.4995 19.6682ZM13.1647 16.1119L16.4984 19.667L17.2278 18.983L13.8942 15.4279L13.1647 16.1119ZM13.8111 13.4608L16.1298 10.2206L15.3166 9.63869L12.9979 12.8789L13.8111 13.4608ZM15.1753 9.22564L10.328 12.4775L10.8851 13.3079L15.7324 10.0561L15.1753 9.22564ZM4.09091 13.4977L7.73397 14.0246L7.87711 13.0349L4.23405 12.508L4.09091 13.4977ZM3.71055 10.6362C2.32211 11.2363 2.59393 13.2812 4.09091 13.4977L4.23405 12.508C3.73506 12.4358 3.64445 11.7542 4.10726 11.5542L3.71055 10.6362ZM10.328 12.4775C9.6082 12.9603 8.73489 13.1589 7.87711 13.0349L7.73397 14.0246C8.83684 14.1841 9.95966 13.9287 10.8851 13.3079L10.328 12.4775ZM16.118 10.2364C16.6058 9.60863 15.8355 8.78272 15.1753 9.22564L15.7324 10.0561C15.4494 10.2459 15.1193 9.89195 15.3284 9.62289L16.118 10.2364ZM13.893 15.4267C13.3852 14.8887 13.3454 14.0608 13.7993 13.4766L13.0096 12.8631C12.2531 13.8367 12.3194 15.2165 13.1659 16.1131L13.893 15.4267Z" fill="#292929"/>
</svg>
