<svg width="24" height="24" viewBox="0 0 24 24" fill="none" xmlns="http://www.w3.org/2000/svg">
<path d="M5.5 8C5.5 7.72386 5.27614 7.5 5 7.5C4.72386 7.5 4.5 7.72386 4.5 8H5.5ZM19.5 8C19.5 7.72386 19.2761 7.5 19 7.5C18.7239 7.5 18.5 7.72386 18.5 8H19.5ZM14.5 11C14.5 10.7239 14.2761 10.5 14 10.5C13.7239 10.5 13.5 10.7239 13.5 11H14.5ZM13.5 17C13.5 17.2761 13.7239 17.5 14 17.5C14.2761 17.5 14.5 17.2761 14.5 17H13.5ZM10.5 11C10.5 10.7239 10.2761 10.5 10 10.5C9.72386 10.5 9.5 10.7239 9.5 11H10.5ZM9.5 17C9.5 17.2761 9.72386 17.5 10 17.5C10.2761 17.5 10.5 17.2761 10.5 17H9.5ZM21 5.5C21.2761 5.5 21.5 5.27614 21.5 5C21.5 4.72386 21.2761 4.5 21 4.5V5.5ZM3 4.5C2.72386 4.5 2.5 4.72386 2.5 5C2.5 5.27614 2.72386 5.5 3 5.5V4.5ZM14.5937 2.8906L14.1777 3.16795V3.16795L14.5937 2.8906ZM9.40627 2.8906L8.99024 2.61325L9.40627 2.8906ZM9 22.5H15V21.5H9V22.5ZM4.5 8V18H5.5V8H4.5ZM19.5 18V8H18.5V18H19.5ZM15 22.5C17.4853 22.5 19.5 20.4853 19.5 18H18.5C18.5 19.933 16.933 21.5 15 21.5V22.5ZM9 21.5C7.067 21.5 5.5 19.933 5.5 18H4.5C4.5 20.4853 6.51472 22.5 9 22.5V21.5ZM13.5 11V17H14.5V11H13.5ZM9.5 11L9.5 17H10.5L10.5 11H9.5ZM11.0704 2.5H12.9296V1.5H11.0704V2.5ZM14.1777 3.16795L15.584 5.27735L16.416 4.72265L15.0098 2.61325L14.1777 3.16795ZM16 4.5H8V5.5H16V4.5ZM8.41603 5.27735L9.82229 3.16795L8.99024 2.61325L7.58397 4.72265L8.41603 5.27735ZM16 5.5H21V4.5H16V5.5ZM8 4.5H3V5.5H8V4.5ZM12.9296 2.5C13.4312 2.5 13.8995 2.75065 14.1777 3.16795L15.0098 2.61325C14.5461 1.91775 13.7655 1.5 12.9296 1.5V2.5ZM11.0704 1.5C10.2345 1.5 9.45391 1.91775 8.99024 2.61325L9.82229 3.16795C10.1005 2.75065 10.5688 2.5 11.0704 2.5V1.5Z" fill="#292929"/>
</svg>
