<svg width="24" height="24" viewBox="0 0 24 24" fill="none" xmlns="http://www.w3.org/2000/svg">
<path d="M7.66725 20L7.65353 20.5H7.66725V20ZM3 4.88889L3.3982 4.58651C3.26838 4.41554 3.04392 4.34653 2.84047 4.41502C2.63702 4.48351 2.5 4.67422 2.5 4.88889H3ZM8.4 16.4444L8.75135 16.8002C8.89033 16.6629 8.93665 16.4573 8.86994 16.2737C8.80322 16.0901 8.6357 15.9622 8.44101 15.9461L8.4 16.4444ZM3 18.9503L2.95254 18.4526C2.75545 18.4714 2.58802 18.6047 2.52555 18.7926C2.46307 18.9804 2.51733 19.1875 2.66392 19.3205L3 18.9503ZM11.5889 8.96808V9.46808C11.7418 9.46808 11.8863 9.39815 11.9811 9.27825C12.0759 9.15835 12.1107 9.00166 12.0755 8.8529L11.5889 8.96808ZM21 4.88889L21.4766 5.04017C21.547 4.81826 21.455 4.57709 21.2546 4.45855C21.0542 4.34001 20.7985 4.37547 20.6379 4.54407L21 4.88889ZM19.0934 8.22229L18.8208 7.80313C18.6815 7.89371 18.5964 8.04754 18.5935 8.21365L19.0934 8.22229ZM18.2303 5.46181L17.8366 5.77C17.8978 5.84822 17.9809 5.90643 18.0754 5.93721L18.2303 5.46181ZM11.9766 8C11.9766 6.04371 13.481 4.5 15.286 4.5V3.5C12.8832 3.5 10.9766 5.53801 10.9766 8H11.9766ZM8.04865 16.0887C6.78131 17.3404 4.78544 18.2778 2.95254 18.4526L3.04746 19.4481C5.10755 19.2516 7.31869 18.2152 8.75135 16.8002L8.04865 16.0887ZM11.5889 8.46808C9.3749 8.46808 5.9634 7.96455 3.3982 4.58651L2.6018 5.19127C5.4366 8.92434 9.2251 9.46808 11.5889 9.46808V8.46808ZM12.0755 8.8529C12.011 8.58046 11.9766 8.29484 11.9766 8H10.9766C10.9766 8.37281 11.0201 8.73572 11.1024 9.08325L12.0755 8.8529ZM7.68096 19.5002C7.09689 19.4842 6.16497 19.4136 5.28327 19.2557C4.84241 19.1767 4.42531 19.0778 4.07534 18.9576C3.71578 18.834 3.47063 18.7023 3.33608 18.5801L2.66392 19.3205C2.94808 19.5785 3.34485 19.7639 3.75034 19.9033C4.16543 20.0459 4.63652 20.1557 5.10694 20.24C6.0478 20.4086 7.03079 20.4827 7.65354 20.4998L7.68096 19.5002ZM20.5234 4.73761C20.4474 4.9772 20.281 5.5778 19.9874 6.22358C19.687 6.88423 19.2946 7.49503 18.8208 7.80313L19.366 8.64146C20.0891 8.17118 20.5794 7.33772 20.8977 6.63748C21.2229 5.92237 21.4114 5.24546 21.4766 5.04017L20.5234 4.73761ZM18.5935 8.21365C18.4849 14.489 13.6127 19.5 7.66725 19.5V20.5C14.2035 20.5 19.4761 15.0053 19.5933 8.23094L18.5935 8.21365ZM18.0754 5.93721C18.6554 6.1262 19.2926 6.13431 19.8643 6.01247C20.4316 5.89159 20.9828 5.63199 21.3621 5.23371L20.6379 4.54407C20.4341 4.7581 20.0853 4.94294 19.6559 5.03443C19.231 5.12497 18.7749 5.11339 18.3852 4.98641L18.0754 5.93721ZM15.286 4.5C16.3066 4.5 17.2252 4.98896 17.8366 5.77L18.624 5.15362C17.8381 4.14957 16.6376 3.5 15.286 3.5V4.5ZM8.44101 15.9461C7.04296 15.8311 3.5 13.6908 3.5 4.88889H2.5C2.5 13.8648 6.15704 16.7615 8.35899 16.9428L8.44101 15.9461Z" fill="#292929"/>
</svg>
