<svg width="24" height="24" viewBox="0 0 24 24" fill="none" xmlns="http://www.w3.org/2000/svg">
<path d="M11.5 16C11.5 16.2761 11.7239 16.5 12 16.5C12.2761 16.5 12.5 16.2761 12.5 16H11.5ZM12.5 14C12.5 13.7239 12.2761 13.5 12 13.5C11.7239 13.5 11.5 13.7239 11.5 14H12.5ZM16 6L16.5 6.00001V6H16ZM8.10235 3.74964C7.96408 3.98867 8.04576 4.29453 8.28479 4.4328C8.52382 4.57107 8.82969 4.48939 8.96796 4.25036L8.10235 3.74964ZM12.5 16V14H11.5V16H12.5ZM8 8.5H16V7.5H8V8.5ZM19.5 12V18H20.5V12H19.5ZM16 21.5H8V22.5H16V21.5ZM4.5 18V12H3.5V18H4.5ZM8 21.5C6.067 21.5 4.5 19.933 4.5 18H3.5C3.5 20.4853 5.51472 22.5 8 22.5V21.5ZM19.5 18C19.5 19.933 17.933 21.5 16 21.5V22.5C18.4853 22.5 20.5 20.4853 20.5 18H19.5ZM16 8.5C17.933 8.5 19.5 10.067 19.5 12H20.5C20.5 9.51472 18.4853 7.5 16 7.5V8.5ZM8 7.5C5.51472 7.5 3.5 9.51472 3.5 12H4.5C4.5 10.067 6.067 8.5 8 8.5V7.5ZM15.5 5.99999L15.5 7.99999L16.5 8.00001L16.5 6.00001L15.5 5.99999ZM12 2.5C13.933 2.5 15.5 4.067 15.5 6H16.5C16.5 3.51472 14.4853 1.5 12 1.5V2.5ZM8.96796 4.25036C9.57388 3.20291 10.7052 2.5 12 2.5V1.5C10.3338 1.5 8.87967 2.40589 8.10235 3.74964L8.96796 4.25036Z" fill="#292929"/>
</svg>
