<svg width="24" height="24" viewBox="0 0 24 24" fill="none" xmlns="http://www.w3.org/2000/svg">
<path d="M21.8766 18.9899L22.3611 19.1132V19.1132L21.8766 18.9899ZM9.87657 18.9899L10.3611 19.1132L9.87657 18.9899ZM6.64645 9.64645C6.45118 9.84171 6.45118 10.1583 6.64645 10.3536C6.84171 10.5488 7.15829 10.5488 7.35355 10.3536L6.64645 9.64645ZM11.4142 8.41421L11.0607 8.76777L11.4142 8.41421ZM12.6464 10.3536C12.8417 10.5488 13.1583 10.5488 13.3536 10.3536C13.5488 10.1583 13.5488 9.84171 13.3536 9.64645L12.6464 10.3536ZM10.5 8C10.5 7.72386 10.2761 7.5 10 7.5C9.72386 7.5 9.5 7.72386 9.5 8H10.5ZM9.5 13C9.5 13.2761 9.72386 13.5 10 13.5C10.2761 13.5 10.5 13.2761 10.5 13H9.5ZM21.392 18.8665C21.0066 20.3807 19.6334 21.5 18 21.5V22.5C20.1016 22.5 21.8656 21.0598 22.3611 19.1132L21.392 18.8665ZM9.39203 18.8665C9.00656 20.3807 7.63337 21.5 6 21.5V22.5C8.1016 22.5 9.86556 21.0598 10.3611 19.1132L9.39203 18.8665ZM1.5 18C1.5 20.4853 3.51472 22.5 6 22.5V21.5C4.067 21.5 2.5 19.933 2.5 18H1.5ZM18 21.5H6V22.5H18V21.5ZM2.5 18V5H1.5V18H2.5ZM5 2.5H15V1.5H5V2.5ZM11 18.5H18V17.5H11V18.5ZM18 18.5H21V17.5H18V18.5ZM17.5 5V18H18.5V5H17.5ZM15 2.5C16.3807 2.5 17.5 3.61929 17.5 5H18.5C18.5 3.067 16.933 1.5 15 1.5V2.5ZM10.3611 19.1132C10.46 18.7247 10.7454 18.5 11 18.5V17.5C10.15 17.5 9.56563 18.1846 9.39203 18.8665L10.3611 19.1132ZM2.5 5C2.5 3.61929 3.61929 2.5 5 2.5V1.5C3.067 1.5 1.5 3.067 1.5 5H2.5ZM22.3611 19.1132C22.6001 18.1745 21.782 17.5 21 17.5V18.5C21.1415 18.5 21.2601 18.5589 21.3296 18.6339C21.3928 18.7022 21.4144 18.7786 21.392 18.8665L22.3611 19.1132ZM7.35355 10.3536L8.93934 8.76777L8.23223 8.06066L6.64645 9.64645L7.35355 10.3536ZM11.0607 8.76777L12.6464 10.3536L13.3536 9.64645L11.7678 8.06066L11.0607 8.76777ZM9.5 8V13H10.5V8H9.5ZM8.93934 8.76777C9.52513 8.18198 10.4749 8.18198 11.0607 8.76777L11.7678 8.06066C10.7915 7.08435 9.20854 7.08435 8.23223 8.06066L8.93934 8.76777Z" fill="#292929"/>
</svg>
