<svg width="24" height="24" viewBox="0 0 24 24" fill="none" xmlns="http://www.w3.org/2000/svg">
<path d="M15.5 7C15.5 8.933 13.933 10.5 12 10.5V11.5C14.4853 11.5 16.5 9.48528 16.5 7H15.5ZM12 10.5C10.067 10.5 8.5 8.933 8.5 7H7.5C7.5 9.48528 9.51472 11.5 12 11.5V10.5ZM8.5 7C8.5 5.067 10.067 3.5 12 3.5V2.5C9.51472 2.5 7.5 4.51472 7.5 7H8.5ZM12 3.5C13.933 3.5 15.5 5.067 15.5 7H16.5C16.5 4.51472 14.4853 2.5 12 2.5V3.5ZM18.5 17.5C18.5 18.1751 17.9397 18.9209 16.7261 19.5277C15.5424 20.1195 13.8722 20.5 12 20.5V21.5C13.9938 21.5 15.8235 21.097 17.1734 20.4221C18.4933 19.7621 19.5 18.7579 19.5 17.5H18.5ZM12 20.5C10.1278 20.5 8.45755 20.1195 7.27386 19.5277C6.06026 18.9209 5.5 18.1751 5.5 17.5H4.5C4.5 18.7579 5.50674 19.7621 6.82665 20.4221C8.17646 21.097 10.0062 21.5 12 21.5V20.5ZM5.5 17.5C5.5 16.8249 6.06026 16.0791 7.27386 15.4723C8.45755 14.8805 10.1278 14.5 12 14.5V13.5C10.0062 13.5 8.17646 13.903 6.82665 14.5779C5.50674 15.2379 4.5 16.2421 4.5 17.5H5.5ZM12 14.5C13.8722 14.5 15.5424 14.8805 16.7261 15.4723C17.9397 16.0791 18.5 16.8249 18.5 17.5H19.5C19.5 16.2421 18.4933 15.2379 17.1734 14.5779C15.8235 13.903 13.9938 13.5 12 13.5V14.5Z" fill="#292929"/>
</svg>
