<svg width="24" height="24" viewBox="0 0 24 24" fill="none" xmlns="http://www.w3.org/2000/svg">
<path d="M22 6V5.5C22.2761 5.5 22.5 5.72386 22.5 6H22ZM22 6.5H6V5.5H22V6.5ZM2.5 10V18H1.5V10H2.5ZM6 21.5H18V22.5H6V21.5ZM21.5 18V6H22.5V18H21.5ZM18 21.5C19.933 21.5 21.5 19.933 21.5 18H22.5C22.5 20.4853 20.4853 22.5 18 22.5V21.5ZM2.5 18C2.5 19.933 4.067 21.5 6 21.5V22.5C3.51472 22.5 1.5 20.4853 1.5 18H2.5ZM6 6.5C4.067 6.5 2.5 8.067 2.5 10H1.5C1.5 7.51472 3.51472 5.5 6 5.5V6.5Z" fill="#292929"/>
<path d="M22 5.5C22.2761 5.5 22.5 5.72386 22.5 6C22.5 6.27614 22.2761 6.5 22 6.5V5.5ZM18 2.5H12V1.5H18V2.5ZM8 5.5H22V6.5H8V5.5ZM12 2.5C10.067 2.5 8.5 4.067 8.5 6H7.5C7.5 3.51472 9.51472 1.5 12 1.5V2.5ZM18 1.5C20.4853 1.5 22.5 3.51472 22.5 6H21.5C21.5 4.067 19.933 2.5 18 2.5V1.5Z" fill="#292929"/>
<path d="M2 12L1.5 12C1.5 11.7239 1.72386 11.5 2 11.5L2 12ZM2 16L2 16.5C1.72386 16.5 1.5 16.2761 1.5 16L2 16ZM2.5 12L2.5 16L1.5 16L1.5 12L2.5 12ZM2 15.5L6 15.5L6 16.5L2 16.5L2 15.5ZM6 12.5L2 12.5L2 11.5L6 11.5L6 12.5ZM7.5 14C7.5 13.1716 6.82843 12.5 6 12.5L6 11.5C7.38071 11.5 8.5 12.6193 8.5 14L7.5 14ZM6 15.5C6.82843 15.5 7.5 14.8284 7.5 14L8.5 14C8.5 15.3807 7.38071 16.5 6 16.5L6 15.5Z" fill="#292929"/>
</svg>
