<svg width="24" height="24" viewBox="0 0 24 24" fill="none" xmlns="http://www.w3.org/2000/svg">
<circle cx="11.9999" cy="17" r="1" fill="#292929"/>
<path d="M2.29587 17.6324L1.86143 17.3849H1.86143L2.29587 17.6324ZM21.7041 17.6324L21.2697 17.8799L21.7041 17.6324ZM14.032 4.16592L14.4665 3.91841L14.032 4.16592ZM9.96798 4.16592L10.4024 4.41343V4.41343L9.96798 4.16592ZM12.4999 8.99997C12.4999 8.72383 12.2761 8.49997 11.9999 8.49997C11.7238 8.49997 11.4999 8.72383 11.4999 8.99997H12.4999ZM11.4999 14C11.4999 14.2761 11.7238 14.5 11.9999 14.5C12.2761 14.5 12.4999 14.2761 12.4999 14H11.4999ZM13.5976 4.41343L21.2697 17.8799L22.1386 17.3849L14.4665 3.91841L13.5976 4.41343ZM19.6721 20.5H4.32789V21.5H19.6721V20.5ZM2.73031 17.8799L10.4024 4.41343L9.53354 3.91841L1.86143 17.3849L2.73031 17.8799ZM4.32789 20.5C2.91716 20.5 2.0702 19.0386 2.73031 17.8799L1.86143 17.3849C0.800011 19.248 2.19376 21.5 4.32789 21.5V20.5ZM21.2697 17.8799C21.9298 19.0386 21.0828 20.5 19.6721 20.5V21.5C21.8062 21.5 23.2 19.248 22.1386 17.3849L21.2697 17.8799ZM14.4665 3.91841C13.389 2.02719 10.611 2.0272 9.53354 3.91841L10.4024 4.41343C11.0963 3.19552 12.9037 3.19552 13.5976 4.41343L14.4665 3.91841ZM11.4999 8.99997V14H12.4999V8.99997H11.4999Z" fill="#292929"/>
</svg>
