<svg width="24" height="24" viewBox="0 0 24 24" fill="none" xmlns="http://www.w3.org/2000/svg">
<path
  d="M21.5 14C21.5 13.7239 21.2761 13.5 21 13.5C20.7239 13.5 20.5 13.7239 20.5 14H21.5ZM12 21.5C11.7239 21.5 11.5 21.7239 11.5 22C11.5 22.2761 11.7239 22.5 12 22.5V21.5ZM20.5 13V15H21.5V13H20.5ZM15.5 15V13H14.5V15H15.5ZM18 17.5C16.6193 17.5 15.5 16.3807 15.5 15H14.5C14.5 16.933 16.067 18.5 18 18.5V17.5ZM20.5 15C20.5 16.3807 19.3807 17.5 18 17.5V18.5C19.933 18.5 21.5 16.933 21.5 15H20.5ZM18 10.5C19.3807 10.5 20.5 11.6193 20.5 13H21.5C21.5 11.067 19.933 9.5 18 9.5V10.5ZM18 9.5C16.067 9.5 14.5 11.067 14.5 13H15.5C15.5 11.6193 16.6193 10.5 18 10.5V9.5ZM8.5 13V15H9.5V13H8.5ZM3.5 15V13H2.5V15H3.5ZM6 17.5C4.61929 17.5 3.5 16.3807 3.5 15H2.5C2.5 16.933 4.067 18.5 6 18.5V17.5ZM8.5 15C8.5 16.3807 7.38071 17.5 6 17.5V18.5C7.933 18.5 9.5 16.933 9.5 15H8.5ZM6 10.5C7.38071 10.5 8.5 11.6193 8.5 13H9.5C9.5 11.067 7.933 9.5 6 9.5V10.5ZM6 9.5C4.067 9.5 2.5 11.067 2.5 13H3.5C3.5 11.6193 4.61929 10.5 6 10.5V9.5ZM3.5 13V11H2.5V13H3.5ZM20.5 11V13H21.5V11H20.5ZM12 2.5C16.6944 2.5 20.5 6.30558 20.5 11H21.5C21.5 5.7533 17.2467 1.5 12 1.5V2.5ZM3.5 11C3.5 6.30558 7.30558 2.5 12 2.5V1.5C6.7533 1.5 2.5 5.7533 2.5 11H3.5ZM20.5 14V16H21.5V14H20.5ZM15 21.5H12V22.5H15V21.5ZM20.5 16C20.5 19.0376 18.0376 21.5 15 21.5V22.5C18.5899 22.5 21.5 19.5899 21.5 16H20.5Z" fill="#ffffff"/>
</svg>
