<svg width="27" height="32" viewBox="0 0 27 32" fill="none" xmlns="http://www.w3.org/2000/svg">
<circle cx="13.0448" cy="14.0448" r="13.0448" fill="#DB332A"/>
<path d="M14.143 16.34H11.963L11.643 6.42H14.443L14.143 16.34ZM11.383 19.58C11.383 19.1133 11.543 18.7267 11.863 18.42C12.183 18.1 12.583 17.94 13.063 17.94C13.5296 17.94 13.923 18.1 14.243 18.42C14.5763 18.7267 14.743 19.1133 14.743 19.58C14.743 20.06 14.5763 20.4667 14.243 20.8C13.923 21.12 13.5296 21.28 13.063 21.28C12.583 21.28 12.183 21.12 11.863 20.8C11.543 20.4667 11.383 20.06 11.383 19.58Z" fill="white"/>
</svg>
