<svg id="Layer_1" data-name="Layer 1" xmlns="http://www.w3.org/2000/svg" xmlns:xlink="http://www.w3.org/1999/xlink" viewBox="0 0 24 24"><defs><style>.cls-1{fill:url(#linear-gradient);}</style><linearGradient id="linear-gradient" x1="12.05" y1="23.82" x2="11.93" y2="3.15" gradientUnits="userSpaceOnUse"><stop offset="0" stop-color="#ef630d"/><stop offset="0.05" stop-color="#ef6c0d"/><stop offset="0.35" stop-color="#ef960d"/><stop offset="0.62" stop-color="#efb50e"/><stop offset="0.84" stop-color="#efc80e"/><stop offset="1" stop-color="#efcf0e"/></linearGradient></defs><path class="cls-1" d="M18.08,5.4A4.3,4.3,0,0,1,15.8,9.6C15.92-.12,8.37,0,8.37,0c1.55,1.2,3.35,5.52-1.2,8.28L7,8.4C0,12.81,3.27,23.72,11.53,24h.31a9.05,9.05,0,0,0,9-9C20.91,10.57,18.08,5.4,18.08,5.4ZM13.4,21.62a5.9,5.9,0,1,1-3.7-11.2s-3.08,3.47-1,6.53A3,3,0,0,1,10.25,14s-1.93,5.87,3.52,7.46Z"/></svg>